<svg width="407" height="315" viewBox="0 0 407 315" fill="none" xmlns="http://www.w3.org/2000/svg">
<g filter="url(#filter0_d_0_1)">
<circle cx="90" cy="132" r="50" fill="white"/>
<circle cx="131" cy="142" r="50" fill="white"/>
<circle cx="178" cy="131" r="50" fill="white"/>
<circle cx="225" cy="123" r="50" fill="white"/>
<circle cx="273" cy="131" r="50" fill="white"/>
<circle cx="317" cy="118" r="50" fill="white"/>
<circle cx="139" cy="195" r="50" fill="white"/>
<circle cx="198" cy="210" r="50" fill="white"/>
<circle cx="228" cy="181" r="50" fill="white"/>
<circle cx="278" cy="203" r="50" fill="white"/>
<circle cx="267" cy="204" r="50" fill="white"/>
<circle cx="317" cy="184" r="50" fill="white"/>
</g>
<mask id="mask0_0_1" style="mask-type:alpha" maskUnits="userSpaceOnUse" x="66" y="85" width="272" height="150">
<mask id="path-13-outside-1_0_1" maskUnits="userSpaceOnUse" x="109.478" y="165.023" width="67.5103" height="70.8881" fill="black">
<rect fill="white" x="109.478" y="165.023" width="67.5103" height="70.8881"/>
<path d="M159.467 172.889L173.319 174.919C174.219 175.051 174.869 175.924 174.807 176.835C174.414 181.447 173.544 189.314 172.397 197.14C171.707 201.85 170.938 206.619 170.003 210.585C166.412 226.401 151.867 232.477 138.846 230.569C126.172 228.712 114.95 219.356 116.382 203.789L119.44 170.845L119.46 170.706C119.592 169.806 120.386 169.215 121.228 169.267L135.389 170.635L135.528 170.655C136.359 170.777 136.95 171.571 136.897 172.412C133.861 204.723 134.712 196.5 133.932 204.238C133.387 209.889 137.275 213.289 141.708 213.938C146.279 214.608 151.356 212.31 152.703 206.494C153.457 203.279 154.176 198.857 154.876 194.078C155.79 187.844 156.597 180.888 157.243 174.544L157.263 174.406C157.477 172.951 158.774 172.788 159.467 172.889Z"/>
</mask>
<path d="M159.467 172.889L173.319 174.919C174.219 175.051 174.869 175.924 174.807 176.835C174.414 181.447 173.544 189.314 172.397 197.14C171.707 201.85 170.938 206.619 170.003 210.585C166.412 226.401 151.867 232.477 138.846 230.569C126.172 228.712 114.95 219.356 116.382 203.789L119.44 170.845L119.46 170.706C119.592 169.806 120.386 169.215 121.228 169.267L135.389 170.635L135.528 170.655C136.359 170.777 136.95 171.571 136.897 172.412C133.861 204.723 134.712 196.5 133.932 204.238C133.387 209.889 137.275 213.289 141.708 213.938C146.279 214.608 151.356 212.31 152.703 206.494C153.457 203.279 154.176 198.857 154.876 194.078C155.79 187.844 156.597 180.888 157.243 174.544L157.263 174.406C157.477 172.951 158.774 172.788 159.467 172.889Z" fill="black"/>
<path d="M174.807 176.835L175.803 176.92L175.804 176.912L175.804 176.904L174.807 176.835ZM170.003 210.585L169.029 210.356L169.028 210.364L170.003 210.585ZM116.382 203.789L115.386 203.697L115.386 203.698L116.382 203.789ZM119.44 170.845L118.451 170.7L118.447 170.726L118.444 170.752L119.44 170.845ZM121.228 169.267L121.324 168.272L121.307 168.27L121.29 168.269L121.228 169.267ZM135.389 170.635L135.534 169.645L135.51 169.642L135.485 169.639L135.389 170.635ZM136.897 172.412L137.893 172.506L137.894 172.49L137.895 172.474L136.897 172.412ZM133.932 204.238L132.937 204.138L132.936 204.142L133.932 204.238ZM152.703 206.494L151.73 206.265L151.729 206.268L152.703 206.494ZM157.243 174.544L156.254 174.399L156.251 174.421L156.248 174.443L157.243 174.544ZM159.322 173.879L173.174 175.908L173.464 173.929L159.612 171.9L159.322 173.879ZM173.174 175.908C173.514 175.958 173.839 176.332 173.809 176.766L175.804 176.904C175.9 175.516 174.924 174.143 173.464 173.929L173.174 175.908ZM173.81 176.75C173.419 181.341 172.552 189.188 171.408 196.995L173.387 197.285C174.536 189.44 175.408 181.552 175.803 176.92L173.81 176.75ZM171.408 196.995C170.718 201.702 169.954 206.434 169.03 210.356L170.976 210.814C171.922 206.803 172.696 201.997 173.387 197.285L171.408 196.995ZM169.028 210.364C165.584 225.531 151.651 231.435 138.991 229.58L138.701 231.559C152.084 233.519 167.24 227.272 170.978 210.806L169.028 210.364ZM138.991 229.58C132.841 228.678 127.087 225.963 123.055 221.638C119.041 217.333 116.687 211.384 117.377 203.881L115.386 203.698C114.644 211.761 117.185 218.274 121.593 223.002C125.983 227.711 132.178 230.603 138.701 231.559L138.991 229.58ZM117.377 203.882L120.436 170.937L118.444 170.752L115.386 203.697L117.377 203.882ZM120.43 170.99L120.45 170.851L118.471 170.561L118.451 170.7L120.43 170.99ZM120.45 170.851C120.503 170.485 120.823 170.244 121.165 170.265L121.29 168.269C119.95 168.185 118.681 169.126 118.471 170.561L120.45 170.851ZM121.132 170.262L135.293 171.63L135.485 169.639L121.324 168.272L121.132 170.262ZM135.244 171.624L135.383 171.644L135.673 169.665L135.534 169.645L135.244 171.624ZM135.383 171.644C135.653 171.684 135.922 171.98 135.899 172.35L137.895 172.474C137.977 171.162 137.065 169.869 135.673 169.665L135.383 171.644ZM135.902 172.318C132.863 204.649 133.717 196.4 132.937 204.138L134.927 204.339C135.707 196.599 134.858 204.797 137.893 172.506L135.902 172.318ZM132.936 204.142C132.638 207.233 133.556 209.775 135.206 211.629C136.842 213.466 139.148 214.574 141.563 214.928L141.853 212.949C139.835 212.653 137.98 211.736 136.7 210.299C135.435 208.878 134.68 206.894 134.927 204.334L132.936 204.142ZM141.563 214.928C146.55 215.658 152.191 213.135 153.677 206.719L151.729 206.268C150.52 211.485 146.008 213.558 141.853 212.949L141.563 214.928ZM153.677 206.722C154.442 203.461 155.166 199.001 155.866 194.223L153.887 193.933C153.186 198.712 152.473 203.097 151.73 206.265L153.677 206.722ZM155.866 194.223C156.782 187.969 157.591 180.997 158.238 174.646L156.248 174.443C155.603 180.778 154.797 187.719 153.887 193.933L155.866 194.223ZM158.233 174.689L158.253 174.551L156.274 174.261L156.254 174.399L158.233 174.689ZM158.253 174.551C158.285 174.333 158.349 174.209 158.402 174.138C158.456 174.066 158.526 174.01 158.618 173.966C158.824 173.866 159.107 173.847 159.322 173.879L159.612 171.9C159.134 171.83 158.421 171.841 157.753 172.162C157.022 172.513 156.43 173.197 156.274 174.261L158.253 174.551Z" fill="white" mask="url(#path-13-outside-1_0_1)"/>
<mask id="path-15-outside-2_0_1" maskUnits="userSpaceOnUse" x="182" y="178" width="34" height="55" fill="black">
<rect fill="white" x="182" y="178" width="34" height="55"/>
<path d="M212.479 220.51L208.839 229.33C208.279 230.66 207.649 231.36 206.599 231.36C206.389 231.36 206.179 231.36 205.969 231.29C194.699 229.05 190.779 222.89 190.429 205.18L185.179 204.9C184.409 204.83 183.779 204.13 183.779 203.36L184.619 191.74C184.689 190.97 185.319 190.34 186.159 190.34L190.639 190.62C190.779 187.96 190.919 185.09 191.129 182.08C191.199 181.24 191.339 179.91 193.159 179.91H193.439L206.669 180.54C207.859 180.61 208.419 181.31 208.419 182.5C208.279 185.44 208.069 188.52 207.859 191.46L212.689 191.74C213.459 191.74 214.089 192.44 214.089 193.28L213.249 204.9C213.179 205.6 212.619 206.23 211.849 206.23H211.709L207.089 206.02C207.089 212.39 207.929 217.22 211.009 218.55C211.779 218.9 212.619 219.18 212.619 219.95C212.619 220.09 212.549 220.3 212.479 220.51Z"/>
</mask>
<path d="M212.479 220.51L208.839 229.33C208.279 230.66 207.649 231.36 206.599 231.36C206.389 231.36 206.179 231.36 205.969 231.29C194.699 229.05 190.779 222.89 190.429 205.18L185.179 204.9C184.409 204.83 183.779 204.13 183.779 203.36L184.619 191.74C184.689 190.97 185.319 190.34 186.159 190.34L190.639 190.62C190.779 187.96 190.919 185.09 191.129 182.08C191.199 181.24 191.339 179.91 193.159 179.91H193.439L206.669 180.54C207.859 180.61 208.419 181.31 208.419 182.5C208.279 185.44 208.069 188.52 207.859 191.46L212.689 191.74C213.459 191.74 214.089 192.44 214.089 193.28L213.249 204.9C213.179 205.6 212.619 206.23 211.849 206.23H211.709L207.089 206.02C207.089 212.39 207.929 217.22 211.009 218.55C211.779 218.9 212.619 219.18 212.619 219.95C212.619 220.09 212.549 220.3 212.479 220.51Z" fill="black"/>
<path d="M212.479 220.51L213.404 220.891L213.417 220.859L213.428 220.826L212.479 220.51ZM208.839 229.33L209.761 229.718L209.764 229.711L208.839 229.33ZM205.969 231.29L206.285 230.341L206.226 230.321L206.164 230.309L205.969 231.29ZM190.429 205.18L191.429 205.16L191.411 204.231L190.483 204.181L190.429 205.18ZM185.179 204.9L185.089 205.896L185.107 205.898L185.126 205.899L185.179 204.9ZM183.779 203.36L182.782 203.288L182.779 203.324V203.36H183.779ZM184.619 191.74L183.623 191.649L183.623 191.659L183.622 191.668L184.619 191.74ZM186.159 190.34L186.222 189.342L186.19 189.34H186.159V190.34ZM190.639 190.62L190.577 191.618L191.585 191.681L191.638 190.673L190.639 190.62ZM191.129 182.08L190.133 181.997L190.132 182.01L191.129 182.08ZM193.439 179.91L193.487 178.911L193.463 178.91H193.439V179.91ZM206.669 180.54L206.728 179.542L206.717 179.541L206.669 180.54ZM208.419 182.5L209.418 182.548L209.419 182.524V182.5H208.419ZM207.859 191.46L206.862 191.389L206.79 192.4L207.801 192.458L207.859 191.46ZM212.689 191.74L212.631 192.738L212.66 192.74H212.689V191.74ZM214.089 193.28L215.087 193.352L215.089 193.316V193.28H214.089ZM213.249 204.9L214.244 205L214.246 204.986L214.247 204.972L213.249 204.9ZM211.709 206.23L211.664 207.229L211.687 207.23H211.709V206.23ZM207.089 206.02L207.135 205.021L206.089 204.974V206.02H207.089ZM211.009 218.55L211.423 217.64L211.414 217.636L211.406 217.632L211.009 218.55ZM211.555 220.129L207.915 228.949L209.764 229.711L213.404 220.891L211.555 220.129ZM207.918 228.942C207.657 229.56 207.425 229.919 207.214 230.119C207.04 230.285 206.866 230.36 206.599 230.36V232.36C207.383 232.36 208.049 232.085 208.592 231.568C209.099 231.086 209.461 230.43 209.761 229.718L207.918 228.942ZM206.599 230.36C206.487 230.36 206.424 230.359 206.367 230.355C206.317 230.351 206.295 230.344 206.285 230.341L205.653 232.239C206.041 232.368 206.412 232.36 206.599 232.36V230.36ZM206.164 230.309C200.691 229.221 197.197 227.228 194.961 223.52C192.673 219.726 191.604 213.989 191.429 205.16L189.429 205.2C189.605 214.081 190.67 220.279 193.248 224.553C195.877 228.912 199.978 231.119 205.774 232.271L206.164 230.309ZM190.483 204.181L185.233 203.901L185.126 205.899L190.376 206.179L190.483 204.181ZM185.27 203.904C185.022 203.882 184.779 203.62 184.779 203.36H182.779C182.779 204.64 183.797 205.778 185.089 205.896L185.27 203.904ZM184.777 203.432L185.617 191.812L183.622 191.668L182.782 203.288L184.777 203.432ZM185.615 191.831C185.64 191.554 185.858 191.34 186.159 191.34V189.34C184.781 189.34 183.738 190.386 183.623 191.649L185.615 191.831ZM186.097 191.338L190.577 191.618L190.702 189.622L186.222 189.342L186.097 191.338ZM191.638 190.673C191.778 188.008 191.918 185.149 192.127 182.15L190.132 182.01C189.921 185.031 189.78 187.912 189.641 190.567L191.638 190.673ZM192.126 182.163C192.163 181.715 192.211 181.411 192.338 181.207C192.387 181.128 192.446 181.069 192.539 181.022C192.638 180.971 192.825 180.91 193.159 180.91V178.91C191.96 178.91 191.12 179.376 190.638 180.153C190.222 180.824 190.165 181.605 190.133 181.997L192.126 182.163ZM193.159 180.91H193.439V178.91H193.159V180.91ZM193.392 180.909L206.622 181.539L206.717 179.541L193.487 178.911L193.392 180.909ZM206.611 181.538C207.018 181.562 207.17 181.681 207.235 181.756C207.313 181.845 207.419 182.049 207.419 182.5H209.419C209.419 181.761 209.246 181.02 208.746 180.444C208.233 179.854 207.511 179.588 206.728 179.542L206.611 181.538ZM207.42 182.452C207.281 185.38 207.072 188.45 206.862 191.389L208.857 191.531C209.067 188.59 209.278 185.5 209.418 182.548L207.42 182.452ZM207.801 192.458L212.631 192.738L212.747 190.742L207.917 190.462L207.801 192.458ZM212.689 192.74C212.76 192.74 212.85 192.771 212.937 192.867C213.025 192.964 213.089 193.11 213.089 193.28H215.089C215.089 191.983 214.102 190.74 212.689 190.74V192.74ZM213.092 193.208L212.252 204.828L214.247 204.972L215.087 193.352L213.092 193.208ZM212.254 204.8C212.242 204.923 212.185 205.04 212.105 205.12C212.031 205.194 211.947 205.23 211.849 205.23V207.23C213.22 207.23 214.132 206.119 214.244 205L212.254 204.8ZM211.849 205.23H211.709V207.23H211.849V205.23ZM211.755 205.231L207.135 205.021L207.044 207.019L211.664 207.229L211.755 205.231ZM206.089 206.02C206.089 209.23 206.299 212.138 206.93 214.439C207.557 216.728 208.662 218.626 210.613 219.468L211.406 217.632C210.276 217.144 209.421 215.962 208.859 213.911C208.3 211.872 208.089 209.18 208.089 206.02H206.089ZM210.595 219.46C210.835 219.569 210.968 219.623 211.162 219.714C211.331 219.793 211.451 219.858 211.537 219.917C211.623 219.976 211.641 220.006 211.637 220C211.634 219.995 211.628 219.984 211.623 219.969C211.619 219.954 211.619 219.946 211.619 219.95H213.619C213.619 219.111 213.125 218.581 212.669 218.268C212.267 217.992 211.728 217.778 211.423 217.64L210.595 219.46ZM211.619 219.95C211.619 219.907 211.624 219.883 211.623 219.89C211.622 219.895 211.619 219.911 211.611 219.941C211.593 220.005 211.568 220.082 211.531 220.194L213.428 220.826C213.461 220.728 213.505 220.595 213.54 220.467C213.572 220.352 213.619 220.159 213.619 219.95H211.619Z" fill="white" mask="url(#path-15-outside-2_0_1)"/>
<mask id="path-17-outside-3_0_1" maskUnits="userSpaceOnUse" x="221.96" y="164.411" width="38.6143" height="66.0923" fill="black">
<rect fill="white" x="221.96" y="164.411" width="38.6143" height="66.0923"/>
<path d="M256.95 223.792L243.488 227.7L243.352 227.732C242.603 227.909 241.913 227.425 241.667 226.692L232.109 193.923C231.915 193.105 232.315 192.363 233.116 192.102L246.578 188.194L246.714 188.162C247.395 188.001 248.154 188.469 248.315 189.15L257.89 221.987L257.922 222.123C258.083 222.805 257.615 223.563 256.95 223.792ZM246.453 176.426C247.759 181.944 244.328 187.504 238.811 188.811C233.225 190.133 227.665 186.702 226.359 181.185C225.036 175.6 228.467 170.039 234.052 168.717C239.57 167.41 245.13 170.841 246.453 176.426Z"/>
</mask>
<path d="M256.95 223.792L243.488 227.7L243.352 227.732C242.603 227.909 241.913 227.425 241.667 226.692L232.109 193.923C231.915 193.105 232.315 192.363 233.116 192.102L246.578 188.194L246.714 188.162C247.395 188.001 248.154 188.469 248.315 189.15L257.89 221.987L257.922 222.123C258.083 222.805 257.615 223.563 256.95 223.792ZM246.453 176.426C247.759 181.944 244.328 187.504 238.811 188.811C233.225 190.133 227.665 186.702 226.359 181.185C225.036 175.6 228.467 170.039 234.052 168.717C239.57 167.41 245.13 170.841 246.453 176.426Z" fill="black"/>
<path d="M256.95 223.792L257.229 224.753L257.253 224.746L257.276 224.738L256.95 223.792ZM243.488 227.7L243.719 228.673L243.743 228.667L243.767 228.66L243.488 227.7ZM241.667 226.692L240.707 226.972L240.713 226.991L240.719 227.01L241.667 226.692ZM232.109 193.923L231.136 194.153L231.141 194.178L231.149 194.203L232.109 193.923ZM233.116 192.102L232.837 191.141L232.821 191.146L232.806 191.151L233.116 192.102ZM246.578 188.194L246.348 187.221L246.323 187.227L246.299 187.234L246.578 188.194ZM248.315 189.15L247.342 189.38L247.348 189.405L247.355 189.43L248.315 189.15ZM257.89 221.987L258.863 221.757L258.857 221.732L258.85 221.707L257.89 221.987ZM256.671 222.832L243.21 226.739L243.767 228.66L257.229 224.753L256.671 222.832ZM243.258 226.726L243.122 226.759L243.583 228.705L243.719 228.673L243.258 226.726ZM243.122 226.759C243.028 226.781 242.945 226.766 242.861 226.712C242.769 226.653 242.671 226.54 242.615 226.375L240.719 227.01C241.091 228.122 242.223 229.027 243.583 228.705L243.122 226.759ZM242.627 226.412L233.069 193.643L231.149 194.203L240.707 226.972L242.627 226.412ZM233.082 193.692C233.004 193.365 233.135 193.147 233.427 193.052L232.806 191.151C231.494 191.579 230.826 192.846 231.136 194.153L233.082 193.692ZM233.395 193.062L246.857 189.155L246.299 187.234L232.837 191.141L233.395 193.062ZM246.808 189.167L246.945 189.135L246.484 187.189L246.348 187.221L246.808 189.167ZM246.945 189.135C246.992 189.124 247.083 189.128 247.184 189.191C247.286 189.254 247.331 189.333 247.342 189.38L249.288 188.919C248.999 187.701 247.702 186.9 246.484 187.189L246.945 189.135ZM247.355 189.43L256.93 222.267L258.85 221.707L249.275 188.87L247.355 189.43ZM256.916 222.218L256.949 222.354L258.895 221.893L258.863 221.757L256.916 222.218ZM256.949 222.354C256.96 222.4 256.958 222.496 256.886 222.617C256.813 222.739 256.709 222.818 256.624 222.847L257.276 224.738C258.371 224.36 259.188 223.13 258.895 221.893L256.949 222.354ZM245.48 176.657C246.659 181.637 243.561 186.658 238.581 187.838L239.041 189.784C245.096 188.35 248.86 182.251 247.426 176.196L245.48 176.657ZM238.581 187.838C233.528 189.034 228.51 185.93 227.332 180.955L225.386 181.415C226.82 187.475 232.923 191.233 239.041 189.784L238.581 187.838ZM227.332 180.955C226.136 175.906 229.235 170.885 234.283 169.69L233.822 167.743C227.699 169.193 223.936 175.293 225.386 181.415L227.332 180.955ZM234.283 169.69C239.259 168.511 244.283 171.605 245.48 176.657L247.426 176.196C245.977 170.077 239.881 166.309 233.822 167.743L234.283 169.69Z" fill="white" mask="url(#path-17-outside-3_0_1)"/>
<mask id="path-19-outside-4_0_1" maskUnits="userSpaceOnUse" x="266.536" y="163.05" width="31.9135" height="65.6922" fill="black">
<rect fill="white" x="266.536" y="163.05" width="31.9135" height="65.6922"/>
<path d="M283.51 226.707L269.711 223.961C268.956 223.81 268.461 223.069 268.611 222.314L279.775 166.224C279.939 165.401 280.68 164.906 281.435 165.056L295.235 167.803C295.99 167.953 296.485 168.694 296.321 169.518L285.157 225.607C285.006 226.363 284.265 226.858 283.51 226.707Z"/>
</mask>
<path d="M283.51 226.707L269.711 223.961C268.956 223.81 268.461 223.069 268.611 222.314L279.775 166.224C279.939 165.401 280.68 164.906 281.435 165.056L295.235 167.803C295.99 167.953 296.485 168.694 296.321 169.518L285.157 225.607C285.006 226.363 284.265 226.858 283.51 226.707Z" fill="black"/>
<path d="M283.705 225.726L269.906 222.98L269.516 224.941L283.315 227.688L283.705 225.726ZM269.906 222.98C269.693 222.937 269.549 222.723 269.592 222.509L267.63 222.119C267.372 223.416 268.219 224.683 269.516 224.941L269.906 222.98ZM269.592 222.509L280.756 166.42L278.795 166.029L267.63 222.119L269.592 222.509ZM280.756 166.42C280.818 166.106 281.058 166 281.24 166.037L281.631 164.075C280.303 163.811 279.06 164.695 278.795 166.029L280.756 166.42ZM281.24 166.037L295.039 168.783L295.43 166.822L281.631 164.075L281.24 166.037ZM295.039 168.783C295.222 168.82 295.402 169.009 295.34 169.322L297.301 169.713C297.567 168.379 296.758 167.086 295.43 166.822L295.039 168.783ZM295.34 169.322L284.176 225.412L286.137 225.803L297.301 169.713L295.34 169.322ZM284.176 225.412C284.133 225.626 283.919 225.769 283.705 225.726L283.315 227.688C284.612 227.946 285.879 227.099 286.137 225.803L284.176 225.412Z" fill="white" mask="url(#path-19-outside-4_0_1)"/>
<mask id="path-21-outside-5_0_1" maskUnits="userSpaceOnUse" x="303.176" y="174.882" width="35.5166" height="47.0558" fill="black">
<rect fill="white" x="303.176" y="174.882" width="35.5166" height="47.0558"/>
<path d="M315.451 219.898L314.685 219.98C313.154 220.144 312.428 219.94 311.883 218.802L307.955 211.057C307.863 210.856 307.771 210.654 307.756 210.515C307.644 209.471 309.021 209.183 309.856 209.093C313.955 208.583 315.695 206.425 315.516 204.754C315.419 203.85 314.394 202.833 313.285 201.685L311.182 199.798C307.746 196.647 306.173 193.789 305.889 191.144C305.045 183.279 315.942 177.886 325.06 176.908C327.774 176.616 328.5 176.82 329.122 178.021L333.12 185.758C333.289 186.022 333.311 186.23 333.334 186.439C333.416 187.205 332.68 187.565 331.775 187.663L331.497 187.692C327.321 188.14 325.869 189.704 326.019 191.096C326.146 192.279 327.331 193.49 330.29 196.129C333.865 199.266 335.593 202.248 335.877 204.893C336.758 213.106 324.777 218.897 315.451 219.898Z"/>
</mask>
<path d="M315.451 219.898L314.685 219.98C313.154 220.144 312.428 219.94 311.883 218.802L307.955 211.057C307.863 210.856 307.771 210.654 307.756 210.515C307.644 209.471 309.021 209.183 309.856 209.093C313.955 208.583 315.695 206.425 315.516 204.754C315.419 203.85 314.394 202.833 313.285 201.685L311.182 199.798C307.746 196.647 306.173 193.789 305.889 191.144C305.045 183.279 315.942 177.886 325.06 176.908C327.774 176.616 328.5 176.82 329.122 178.021L333.12 185.758C333.289 186.022 333.311 186.23 333.334 186.439C333.416 187.205 332.68 187.565 331.775 187.663L331.497 187.692C327.321 188.14 325.869 189.704 326.019 191.096C326.146 192.279 327.331 193.49 330.29 196.129C333.865 199.266 335.593 202.248 335.877 204.893C336.758 213.106 324.777 218.897 315.451 219.898Z" fill="black"/>
<path d="M311.883 218.802L312.785 218.371L312.78 218.36L312.775 218.35L311.883 218.802ZM307.955 211.057L307.045 211.473L307.054 211.491L307.063 211.509L307.955 211.057ZM309.856 209.093L309.963 210.087L309.971 210.086L309.98 210.085L309.856 209.093ZM313.285 201.685L314.005 200.99L313.98 200.964L313.953 200.94L313.285 201.685ZM311.182 199.798L310.506 200.535L310.515 200.543L311.182 199.798ZM329.122 178.021L330.01 177.562L330.01 177.561L329.122 178.021ZM333.12 185.758L332.231 186.217L332.253 186.259L332.278 186.298L333.12 185.758ZM330.29 196.129L329.624 196.875L329.63 196.881L330.29 196.129ZM315.344 218.903L314.578 218.986L314.792 220.974L315.557 220.892L315.344 218.903ZM314.578 218.986C313.835 219.065 313.48 219.027 313.279 218.948C313.148 218.897 312.988 218.794 312.785 218.371L310.981 219.234C311.323 219.948 311.799 220.517 312.549 220.811C313.231 221.077 314.004 221.059 314.792 220.974L314.578 218.986ZM312.775 218.35L308.847 210.605L307.063 211.509L310.992 219.254L312.775 218.35ZM308.864 210.641C308.816 210.534 308.782 210.46 308.758 210.398C308.746 210.369 308.741 210.354 308.74 210.349C308.738 210.343 308.746 210.365 308.75 210.408L306.762 210.622C306.784 210.829 306.852 211.016 306.895 211.127C306.944 211.251 307.002 211.378 307.045 211.473L308.864 210.641ZM308.75 210.408C308.748 210.392 308.749 210.425 308.73 210.45C308.729 210.452 308.763 210.407 308.892 210.343C309.164 210.21 309.572 210.129 309.963 210.087L309.749 208.099C309.305 208.146 308.607 208.255 308.009 208.549C307.704 208.699 307.362 208.928 307.108 209.28C306.837 209.656 306.707 210.116 306.762 210.622L308.75 210.408ZM309.98 210.085C312.176 209.812 313.84 209.085 314.95 208.11C316.055 207.14 316.642 205.883 316.51 204.648L314.521 204.861C314.568 205.296 314.375 205.953 313.63 206.607C312.891 207.257 311.635 207.864 309.733 208.101L309.98 210.085ZM316.51 204.648C316.429 203.896 315.99 203.226 315.562 202.688C315.118 202.13 314.542 201.546 314.005 200.99L312.566 202.379C313.138 202.972 313.628 203.47 313.998 203.934C314.383 204.418 314.505 204.708 314.521 204.861L316.51 204.648ZM313.953 200.94L311.85 199.054L310.515 200.543L312.618 202.429L313.953 200.94ZM311.858 199.061C308.521 196.001 307.131 193.35 306.883 191.037L304.895 191.25C305.214 194.227 306.972 197.293 310.506 200.535L311.858 199.061ZM306.883 191.037C306.52 187.657 308.656 184.649 312.285 182.28C315.89 179.927 320.736 178.377 325.166 177.902L324.953 175.913C320.265 176.416 315.105 178.051 311.192 180.606C307.304 183.144 304.413 186.766 304.895 191.25L306.883 191.037ZM325.166 177.902C326.544 177.754 327.221 177.762 327.61 177.869C327.769 177.913 327.857 177.968 327.927 178.033C328.008 178.108 328.107 178.235 328.234 178.48L330.01 177.561C329.826 177.206 329.601 176.857 329.286 176.566C328.96 176.264 328.58 176.061 328.141 175.94C327.333 175.718 326.29 175.77 324.953 175.913L325.166 177.902ZM328.233 178.48L332.231 186.217L334.008 185.299L330.01 177.562L328.233 178.48ZM332.278 186.298C332.305 186.34 332.311 186.362 332.315 186.376C332.322 186.403 332.327 186.434 332.339 186.546L334.328 186.333C334.302 186.095 334.263 185.688 333.961 185.218L332.278 186.298ZM332.339 186.546C332.341 186.564 332.336 186.535 332.358 186.492C332.376 186.455 332.391 186.455 332.356 186.479C332.319 186.504 332.245 186.544 332.12 186.582C331.998 186.619 331.846 186.649 331.669 186.668L331.882 188.657C332.409 188.6 333.009 188.458 333.493 188.125C334.036 187.749 334.414 187.131 334.328 186.333L332.339 186.546ZM331.669 186.668L331.39 186.698L331.603 188.687L331.882 188.657L331.669 186.668ZM331.39 186.698C329.212 186.932 327.614 187.467 326.553 188.228C325.467 189.006 324.903 190.067 325.024 191.203L327.013 190.989C326.985 190.733 327.072 190.316 327.718 189.853C328.39 189.372 329.606 188.901 331.603 188.687L331.39 186.698ZM325.024 191.203C325.121 192.103 325.613 192.894 326.339 193.725C327.069 194.559 328.152 195.562 329.624 196.875L330.956 195.383C329.47 194.057 328.48 193.135 327.845 192.409C327.207 191.679 327.043 191.273 327.013 190.989L325.024 191.203ZM329.63 196.881C333.109 199.933 334.636 202.705 334.882 205L336.871 204.787C336.55 201.792 334.62 198.598 330.949 195.378L329.63 196.881ZM334.882 205C335.261 208.534 332.892 211.73 328.951 214.259C325.048 216.763 319.874 218.417 315.344 218.903L315.557 220.892C320.354 220.378 325.833 218.636 330.032 215.942C334.192 213.272 337.373 209.465 336.871 204.787L334.882 205Z" fill="white" mask="url(#path-21-outside-5_0_1)"/>
<mask id="path-23-outside-6_0_1" maskUnits="userSpaceOnUse" x="64.019" y="92.6496" width="49.1605" height="69.2605" fill="black">
<rect fill="white" x="64.019" y="92.6496" width="49.1605" height="69.2605"/>
<path d="M68.701 152.253L68.5988 141.502C68.559 141.351 68.6022 141.145 68.631 141.008C68.8468 139.981 69.9464 139.854 70.3574 139.94L70.6314 139.998C75.2898 140.976 80.8772 139.575 81.7837 135.259C82.2586 132.999 81.4572 130.684 78.9666 124.153C77.0501 119.316 76.6228 115.22 77.3279 111.864C79.6015 101.04 93.213 97.533 104.722 99.9505C107.394 100.512 108.706 101.073 108.815 102.598L109.083 113.241C109.108 113.461 109.065 113.666 109.036 113.803C108.806 114.899 107.692 115.094 107.281 115.008L106.87 114.922C102.417 113.986 97.8932 114.753 97.073 118.658C96.5837 120.987 97.62 124.566 99.8359 129.681C101.821 134.533 102.248 138.628 101.529 142.053C99.1401 153.425 84.0974 157.275 72.246 154.786C71.561 154.642 70.9444 154.512 70.2738 154.3C69.3832 154.113 68.7194 153.187 68.701 152.253Z"/>
</mask>
<path d="M68.701 152.253L68.5988 141.502C68.559 141.351 68.6022 141.145 68.631 141.008C68.8468 139.981 69.9464 139.854 70.3574 139.94L70.6314 139.998C75.2898 140.976 80.8772 139.575 81.7837 135.259C82.2586 132.999 81.4572 130.684 78.9666 124.153C77.0501 119.316 76.6228 115.22 77.3279 111.864C79.6015 101.04 93.213 97.533 104.722 99.9505C107.394 100.512 108.706 101.073 108.815 102.598L109.083 113.241C109.108 113.461 109.065 113.666 109.036 113.803C108.806 114.899 107.692 115.094 107.281 115.008L106.87 114.922C102.417 113.986 97.8932 114.753 97.073 118.658C96.5837 120.987 97.62 124.566 99.8359 129.681C101.821 134.533 102.248 138.628 101.529 142.053C99.1401 153.425 84.0974 157.275 72.246 154.786C71.561 154.642 70.9444 154.512 70.2738 154.3C69.3832 154.113 68.7194 153.187 68.701 152.253Z" fill="black"/>
<path d="M68.701 152.253L67.701 152.262L67.7012 152.273L68.701 152.253ZM68.5988 141.502L69.5987 141.493L69.5975 141.369L69.566 141.248L68.5988 141.502ZM78.9666 124.153L79.9011 123.797L79.8963 123.785L78.9666 124.153ZM108.815 102.598L109.815 102.573L109.814 102.55L109.812 102.527L108.815 102.598ZM109.083 113.241L108.083 113.266L108.084 113.311L108.09 113.355L109.083 113.241ZM99.8359 129.681L100.761 129.302L100.758 129.293L100.754 129.283L99.8359 129.681ZM70.2738 154.3L70.5757 153.346L70.5282 153.331L70.4793 153.321L70.2738 154.3ZM69.7009 152.243L69.5987 141.493L67.5988 141.512L67.701 152.262L69.7009 152.243ZM69.566 141.248C69.5736 141.277 69.5776 141.301 69.5797 141.318C69.5819 141.335 69.5825 141.348 69.5827 141.355C69.583 141.368 69.5821 141.37 69.5834 141.357C69.5847 141.345 69.5873 141.327 69.5919 141.302C69.5967 141.276 69.6022 141.249 69.6096 141.214L67.6523 140.803C67.6391 140.866 67.6105 140.998 67.5949 141.143C67.5806 141.276 67.5661 141.507 67.6315 141.756L69.566 141.248ZM69.6096 141.214C69.6277 141.128 69.6562 141.088 69.6765 141.066C69.7013 141.038 69.7426 141.006 69.8104 140.978C69.8797 140.948 69.9611 140.929 70.0403 140.922C70.1259 140.913 70.1676 140.922 70.1518 140.919L70.563 138.962C70.1587 138.877 69.5735 138.906 69.0316 139.136C68.4417 139.385 67.8409 139.905 67.6523 140.803L69.6096 141.214ZM70.1518 140.919L70.4258 140.977L70.837 139.019L70.563 138.962L70.1518 140.919ZM70.4258 140.977C72.9089 141.498 75.6641 141.394 77.9588 140.553C80.2637 139.707 82.2168 138.062 82.7623 135.465L80.8051 135.054C80.444 136.772 79.1502 137.986 77.2701 138.675C75.38 139.368 73.0123 139.476 70.837 139.019L70.4258 140.977ZM82.7623 135.465C83.0439 134.125 82.9281 132.81 82.4527 131.047C81.9844 129.311 81.1405 127.047 79.901 123.797L78.0322 124.509C79.2833 127.79 80.0853 129.95 80.5217 131.568C80.9509 133.16 80.9984 134.133 80.8051 135.054L82.7623 135.465ZM79.8963 123.785C78.0299 119.074 77.6525 115.183 78.3065 112.069L76.3492 111.658C75.5931 115.258 76.0702 119.557 78.0369 124.521L79.8963 123.785ZM78.3065 112.069C79.3537 107.084 83.0086 103.722 87.9136 101.878C92.8332 100.028 98.9163 99.7528 104.516 100.929L104.927 98.9718C99.0186 97.7307 92.5415 98.0006 87.2097 100.006C81.8633 102.016 77.5757 105.819 76.3492 111.658L78.3065 112.069ZM104.516 100.929C105.857 101.211 106.702 101.466 107.219 101.773C107.459 101.916 107.59 102.048 107.668 102.167C107.742 102.281 107.801 102.433 107.818 102.67L109.812 102.527C109.775 102.001 109.628 101.511 109.343 101.074C109.06 100.64 108.676 100.312 108.24 100.053C107.406 99.5577 106.258 99.2513 104.927 98.9718L104.516 100.929ZM107.815 102.624L108.083 113.266L110.083 113.216L109.815 102.573L107.815 102.624ZM108.09 113.355C108.091 113.368 108.092 113.393 108.087 113.437C108.081 113.483 108.072 113.527 108.058 113.598L110.015 114.009C110.042 113.879 110.123 113.527 110.076 113.126L108.09 113.355ZM108.058 113.598C108.034 113.713 107.993 113.78 107.956 113.824C107.916 113.872 107.861 113.915 107.788 113.95C107.713 113.987 107.631 114.01 107.557 114.02C107.474 114.032 107.448 114.021 107.487 114.03L107.076 115.987C107.52 116.08 108.127 116.01 108.665 115.748C109.253 115.461 109.826 114.908 110.015 114.009L108.058 113.598ZM107.487 114.03L107.076 113.943L106.665 115.9L107.076 115.987L107.487 114.03ZM107.076 113.943C104.751 113.455 102.32 113.389 100.309 114.021C98.2528 114.667 96.5942 116.072 96.0943 118.452L98.0516 118.863C98.3719 117.338 99.3855 116.408 100.909 115.929C102.479 115.435 104.536 115.453 106.665 115.9L107.076 113.943ZM96.0943 118.452C95.803 119.839 95.9821 121.493 96.4722 123.377C96.9661 125.275 97.8023 127.503 98.9183 130.079L100.754 129.283C99.6536 126.745 98.8637 124.625 98.4078 122.873C97.9481 121.106 97.8536 119.806 98.0516 118.863L96.0943 118.452ZM98.9104 130.06C100.841 134.778 101.218 138.666 100.55 141.848L102.507 142.259C103.278 138.59 102.801 134.288 100.761 129.302L98.9104 130.06ZM100.55 141.848C99.4489 147.09 95.4245 150.683 90.0855 152.681C84.7414 154.68 78.2126 155.017 72.4516 153.807L72.0405 155.764C78.1308 157.044 85.049 156.7 90.7863 154.554C96.5287 152.406 101.22 148.388 102.507 142.259L100.55 141.848ZM72.4516 153.807C71.7611 153.662 71.1918 153.542 70.5757 153.346L69.9719 155.253C70.6971 155.483 71.3609 155.622 72.0405 155.764L72.4516 153.807ZM70.4793 153.321C70.1202 153.246 69.7117 152.783 69.7008 152.233L67.7012 152.273C67.7272 153.59 68.6462 154.98 70.0682 155.278L70.4793 153.321Z" fill="white" mask="url(#path-23-outside-6_0_1)"/>
<mask id="path-25-outside-7_0_1" maskUnits="userSpaceOnUse" x="109" y="118" width="44" height="45" fill="black">
<rect fill="white" x="109" y="118" width="44" height="45"/>
<path d="M147.481 124.54L144.191 133.01C143.911 133.85 143.141 134.55 142.301 134.55C142.021 134.55 141.671 134.41 141.391 134.2C140.131 133.15 137.681 132.38 135.231 132.38C133.411 132.38 127.321 132.8 127.321 140.43C127.321 145.12 130.681 148.2 135.231 148.2C138.241 148.2 141.741 146.87 145.101 143.79C145.521 143.37 146.151 143.02 146.781 143.02C147.271 143.02 147.831 143.3 148.321 144.14C149.581 146.52 150.421 147.78 151.541 150.09C151.751 150.51 151.891 151 151.891 151.49C151.891 152.33 151.541 153.1 150.701 153.94C145.031 159.33 138.311 161.71 132.011 161.71C120.391 161.71 110.101 153.59 110.101 141.27C110.101 125.59 122.631 119.22 134.181 119.22C141.951 119.22 147.551 122.3 147.551 124.05C147.551 124.19 147.551 124.4 147.481 124.54Z"/>
</mask>
<path d="M147.481 124.54L144.191 133.01C143.911 133.85 143.141 134.55 142.301 134.55C142.021 134.55 141.671 134.41 141.391 134.2C140.131 133.15 137.681 132.38 135.231 132.38C133.411 132.38 127.321 132.8 127.321 140.43C127.321 145.12 130.681 148.2 135.231 148.2C138.241 148.2 141.741 146.87 145.101 143.79C145.521 143.37 146.151 143.02 146.781 143.02C147.271 143.02 147.831 143.3 148.321 144.14C149.581 146.52 150.421 147.78 151.541 150.09C151.751 150.51 151.891 151 151.891 151.49C151.891 152.33 151.541 153.1 150.701 153.94C145.031 159.33 138.311 161.71 132.011 161.71C120.391 161.71 110.101 153.59 110.101 141.27C110.101 125.59 122.631 119.22 134.181 119.22C141.951 119.22 147.551 122.3 147.551 124.05C147.551 124.19 147.551 124.4 147.481 124.54Z" fill="black"/>
<path d="M147.481 124.54L146.587 124.093L146.566 124.134L146.549 124.178L147.481 124.54ZM144.191 133.01L143.259 132.648L143.25 132.671L143.243 132.694L144.191 133.01ZM141.391 134.2L140.751 134.968L140.771 134.985L140.791 135L141.391 134.2ZM145.101 143.79L145.777 144.527L145.793 144.512L145.809 144.497L145.101 143.79ZM148.321 144.14L149.205 143.672L149.196 143.654L149.185 143.636L148.321 144.14ZM151.541 150.09L150.642 150.526L150.647 150.537L151.541 150.09ZM150.701 153.94L151.39 154.665L151.4 154.656L151.409 154.647L150.701 153.94ZM146.549 124.178L143.259 132.648L145.124 133.372L148.414 124.902L146.549 124.178ZM143.243 132.694C143.058 133.249 142.594 133.55 142.301 133.55V135.55C143.689 135.55 144.765 134.451 145.14 133.326L143.243 132.694ZM142.301 133.55C142.318 133.55 142.285 133.552 142.209 133.522C142.138 133.494 142.06 133.451 141.991 133.4L140.791 135C141.185 135.295 141.741 135.55 142.301 135.55V133.55ZM142.032 133.432C140.536 132.186 137.831 131.38 135.231 131.38V133.38C137.532 133.38 139.726 134.114 140.751 134.968L142.032 133.432ZM135.231 131.38C134.27 131.38 132.066 131.485 130.076 132.688C128.002 133.943 126.321 136.295 126.321 140.43H128.321C128.321 136.935 129.686 135.262 131.112 134.399C132.622 133.485 134.373 133.38 135.231 133.38V131.38ZM126.321 140.43C126.321 143.024 127.256 145.234 128.877 146.794C130.493 148.35 132.728 149.2 135.231 149.2V147.2C133.184 147.2 131.465 146.51 130.264 145.353C129.067 144.201 128.321 142.526 128.321 140.43H126.321ZM135.231 149.2C138.539 149.2 142.271 147.741 145.777 144.527L144.426 143.053C141.212 145.999 137.944 147.2 135.231 147.2V149.2ZM145.809 144.497C146.105 144.2 146.495 144.02 146.781 144.02V142.02C145.807 142.02 144.938 142.54 144.394 143.083L145.809 144.497ZM146.781 144.02C146.826 144.02 146.896 144.03 146.997 144.097C147.105 144.169 147.27 144.323 147.458 144.644L149.185 143.636C148.571 142.582 147.724 142.02 146.781 142.02V144.02ZM147.438 144.608C148.753 147.092 149.521 148.215 150.642 150.526L152.441 149.654C151.322 147.345 150.41 145.948 149.205 143.672L147.438 144.608ZM150.647 150.537C150.802 150.846 150.891 151.184 150.891 151.49H152.891C152.891 150.816 152.701 150.174 152.436 149.643L150.647 150.537ZM150.891 151.49C150.891 151.993 150.705 152.522 149.994 153.233L151.409 154.647C152.378 153.678 152.891 152.667 152.891 151.49H150.891ZM150.012 153.215C144.528 158.429 138.055 160.71 132.011 160.71V162.71C138.568 162.71 145.535 160.231 151.39 154.665L150.012 153.215ZM132.011 160.71C120.828 160.71 111.101 152.928 111.101 141.27H109.101C109.101 154.252 119.955 162.71 132.011 162.71V160.71ZM111.101 141.27C111.101 133.732 114.097 128.514 118.423 125.155C122.784 121.769 128.572 120.22 134.181 120.22V118.22C128.241 118.22 121.988 119.856 117.197 123.575C112.371 127.321 109.101 133.128 109.101 141.27H111.101ZM134.181 120.22C137.941 120.22 141.152 120.966 143.395 121.902C144.521 122.371 145.37 122.874 145.918 123.327C146.192 123.554 146.366 123.748 146.464 123.896C146.567 124.049 146.551 124.096 146.551 124.05H148.551C148.551 123.567 148.361 123.135 148.127 122.784C147.889 122.428 147.565 122.095 147.192 121.787C146.447 121.17 145.411 120.575 144.165 120.056C141.666 119.014 138.192 118.22 134.181 118.22V120.22ZM146.551 124.05C146.551 124.086 146.551 124.113 146.551 124.14C146.55 124.166 146.549 124.183 146.548 124.195C146.546 124.208 146.546 124.206 146.549 124.194C146.55 124.187 146.554 124.175 146.559 124.158C146.565 124.142 146.574 124.12 146.587 124.093L148.376 124.987C148.491 124.757 148.524 124.528 148.538 124.395C148.552 124.25 148.551 124.114 148.551 124.05H146.551Z" fill="white" mask="url(#path-25-outside-7_0_1)"/>
<mask id="path-27-outside-8_0_1" maskUnits="userSpaceOnUse" x="153.886" y="91.6958" width="58.3048" height="69.0074" fill="black">
<rect fill="white" x="153.886" y="91.6958" width="58.3048" height="69.0074"/>
<path d="M209.376 148.088L203.322 154.202C202.621 154.908 201.946 155.189 201.32 155.254C201.041 155.283 187.915 154.247 186.454 140.112C185.583 131.687 181.374 129.096 176.361 129.614L176.013 129.65L178.626 154.925C178.712 155.761 178.15 156.452 177.384 156.532L163.458 157.971C162.623 158.057 161.931 157.496 161.845 156.66L155.958 99.7034C155.878 98.9375 156.433 98.1764 157.269 98.0901L171.195 96.6506C171.96 96.5715 172.659 97.203 172.738 97.9689L174.61 116.072C175.438 115.916 176.273 115.83 177.039 115.751C190.13 114.398 201.38 121.117 203.014 134.882C203.551 139.4 204.817 142.788 208.509 145.151C208.963 145.456 209.801 146.073 209.88 146.839C209.916 147.187 209.82 147.619 209.376 148.088Z"/>
</mask>
<path d="M209.376 148.088L203.322 154.202C202.621 154.908 201.946 155.189 201.32 155.254C201.041 155.283 187.915 154.247 186.454 140.112C185.583 131.687 181.374 129.096 176.361 129.614L176.013 129.65L178.626 154.925C178.712 155.761 178.15 156.452 177.384 156.532L163.458 157.971C162.623 158.057 161.931 157.496 161.845 156.66L155.958 99.7034C155.878 98.9375 156.433 98.1764 157.269 98.0901L171.195 96.6506C171.96 96.5715 172.659 97.203 172.738 97.9689L174.61 116.072C175.438 115.916 176.273 115.83 177.039 115.751C190.13 114.398 201.38 121.117 203.014 134.882C203.551 139.4 204.817 142.788 208.509 145.151C208.963 145.456 209.801 146.073 209.88 146.839C209.916 147.187 209.82 147.619 209.376 148.088Z" fill="black"/>
<path d="M209.376 148.088L210.086 148.791L210.094 148.784L210.101 148.776L209.376 148.088ZM203.322 154.202L204.032 154.907L204.033 154.906L203.322 154.202ZM176.013 129.65L175.91 128.655L174.915 128.758L175.018 129.753L176.013 129.65ZM174.61 116.072L173.615 116.175L173.727 117.256L174.795 117.055L174.61 116.072ZM203.014 134.882L202.021 134.999L202.021 135L203.014 134.882ZM208.509 145.151L209.067 144.321L209.057 144.315L209.048 144.309L208.509 145.151ZM208.665 147.384L202.611 153.499L204.033 154.906L210.086 148.791L208.665 147.384ZM202.613 153.498C202.058 154.056 201.592 154.22 201.217 154.259L201.422 156.248C202.301 156.158 203.184 155.76 204.032 154.907L202.613 153.498ZM201.217 154.259C201.296 154.251 201.352 154.256 201.303 154.254C201.286 154.253 201.254 154.251 201.207 154.247C201.114 154.239 200.975 154.225 200.797 154.2C200.439 154.152 199.932 154.064 199.321 153.916C198.097 153.619 196.478 153.081 194.831 152.128C191.569 150.244 188.142 146.715 187.449 140.009L185.459 140.215C186.227 147.644 190.093 151.7 193.83 153.86C195.681 154.93 197.488 155.529 198.849 155.859C199.531 156.025 200.106 156.124 200.525 156.182C200.735 156.211 200.908 156.229 201.039 156.24C201.103 156.246 201.161 156.25 201.21 156.252C201.227 156.253 201.326 156.259 201.422 156.248L201.217 154.259ZM187.449 140.009C186.999 135.66 185.671 132.634 183.636 130.772C181.583 128.892 178.965 128.34 176.258 128.619L176.464 130.609C178.77 130.37 180.764 130.854 182.286 132.247C183.827 133.657 185.038 136.139 185.459 140.215L187.449 140.009ZM176.258 128.619L175.91 128.655L176.116 130.645L176.464 130.609L176.258 128.619ZM175.018 129.753L177.631 155.028L179.62 154.823L177.008 129.547L175.018 129.753ZM177.631 155.028C177.664 155.346 177.466 155.518 177.281 155.537L177.487 157.526C178.834 157.387 179.76 156.175 179.62 154.823L177.631 155.028ZM177.281 155.537L163.356 156.976L163.561 158.966L177.487 157.526L177.281 155.537ZM163.356 156.976C163.069 157.006 162.869 156.843 162.84 156.557L160.85 156.763C160.993 158.148 162.176 159.109 163.561 158.966L163.356 156.976ZM162.84 156.557L156.952 99.6006L154.963 99.8063L160.85 156.763L162.84 156.557ZM156.952 99.6006C156.927 99.3531 157.116 99.1112 157.372 99.0848L157.166 97.0954C155.75 97.2417 154.83 98.522 154.963 99.8063L156.952 99.6006ZM157.372 99.0848L171.297 97.6453L171.092 95.6559L157.166 97.0954L157.372 99.0848ZM171.297 97.6453C171.37 97.6378 171.468 97.6607 171.568 97.7475C171.67 97.8362 171.732 97.958 171.744 98.0717L173.733 97.8661C173.604 96.6143 172.468 95.5136 171.092 95.6559L171.297 97.6453ZM171.744 98.0717L173.615 116.175L175.604 115.97L173.733 97.8661L171.744 98.0717ZM174.795 117.055C175.576 116.908 176.37 116.825 177.142 116.746L176.937 114.756C176.177 114.835 175.3 114.925 174.424 115.09L174.795 117.055ZM177.142 116.746C183.496 116.089 189.331 117.398 193.752 120.468C198.157 123.527 201.236 128.384 202.021 134.999L204.007 134.764C203.158 127.614 199.795 122.23 194.893 118.826C190.008 115.434 183.673 114.06 176.937 114.756L177.142 116.746ZM202.021 135C202.574 139.653 203.914 143.398 207.97 145.993L209.048 144.309C205.719 142.178 204.528 139.147 204.007 134.764L202.021 135ZM207.951 145.981C208.162 146.123 208.413 146.305 208.613 146.514C208.826 146.736 208.879 146.882 208.885 146.942L210.875 146.736C210.802 146.03 210.396 145.484 210.057 145.13C209.705 144.763 209.31 144.484 209.067 144.321L207.951 145.981ZM208.885 146.942C208.889 146.979 208.887 147.023 208.866 147.082C208.844 147.143 208.79 147.252 208.65 147.399L210.101 148.776C210.731 148.112 210.943 147.396 210.875 146.736L208.885 146.942Z" fill="white" mask="url(#path-27-outside-8_0_1)"/>
<mask id="path-29-outside-9_0_1" maskUnits="userSpaceOnUse" x="203.583" y="96.7034" width="53.0842" height="50.4686" fill="black">
<rect fill="white" x="203.583" y="96.7034" width="53.0842" height="50.4686"/>
<path d="M252.6 124.673C250.951 138.223 236.271 144.123 226.404 142.922C215.077 141.544 206.138 132.135 207.626 119.905C209.368 105.591 220.974 99.4577 233.204 100.946C248.561 102.815 253.699 115.639 252.6 124.673ZM229.686 129.853C234.62 130.453 237.334 126.693 237.816 122.733C237.977 121.412 238.519 114.638 231.431 113.776C225.594 113.065 223.326 117.796 222.946 120.923C222.362 125.718 225.726 129.371 229.686 129.853Z"/>
</mask>
<path d="M252.6 124.673C250.951 138.223 236.271 144.123 226.404 142.922C215.077 141.544 206.138 132.135 207.626 119.905C209.368 105.591 220.974 99.4577 233.204 100.946C248.561 102.815 253.699 115.639 252.6 124.673ZM229.686 129.853C234.62 130.453 237.334 126.693 237.816 122.733C237.977 121.412 238.519 114.638 231.431 113.776C225.594 113.065 223.326 117.796 222.946 120.923C222.362 125.718 225.726 129.371 229.686 129.853Z" fill="black"/>
<path d="M251.607 124.552C250.828 130.953 246.979 135.57 242.075 138.468C237.15 141.377 231.234 142.502 226.524 141.929L226.283 143.915C231.441 144.542 237.798 143.317 243.092 140.19C248.407 137.05 252.723 131.942 253.592 124.793L251.607 124.552ZM226.524 141.929C215.664 140.608 207.207 131.629 208.619 120.026L206.634 119.784C205.069 132.641 214.49 142.48 226.283 143.915L226.524 141.929ZM208.619 120.026C209.457 113.137 212.649 108.292 217.041 105.328C221.454 102.351 227.161 101.218 233.083 101.939L233.325 99.9532C227.017 99.1857 220.806 100.376 215.923 103.671C211.019 106.98 207.537 112.359 206.634 119.784L208.619 120.026ZM233.083 101.939C240.474 102.838 245.339 106.354 248.242 110.68C251.166 115.035 252.13 120.256 251.607 124.552L253.592 124.793C254.169 120.056 253.113 114.347 249.903 109.565C246.673 104.754 241.29 100.922 233.325 99.9532L233.083 101.939ZM229.566 130.845C232.337 131.183 234.555 130.288 236.129 128.709C237.675 127.158 238.547 125.004 238.809 122.853L236.823 122.612C236.603 124.422 235.877 126.128 234.712 127.297C233.575 128.438 231.969 129.123 229.807 128.86L229.566 130.845ZM238.809 122.853C238.894 122.148 239.094 119.93 238.279 117.734C237.865 116.621 237.183 115.492 236.077 114.582C234.968 113.668 233.487 113.019 231.552 112.783L231.31 114.768C232.919 114.964 234.028 115.485 234.806 116.125C235.587 116.769 236.087 117.578 236.404 118.431C237.049 120.168 236.898 121.997 236.823 122.612L238.809 122.853ZM231.552 112.783C228.305 112.388 225.959 113.518 224.401 115.239C222.883 116.916 222.161 119.092 221.953 120.802L223.938 121.044C224.111 119.627 224.713 117.875 225.883 116.582C227.014 115.333 228.72 114.453 231.31 114.768L231.552 112.783ZM221.953 120.802C221.3 126.168 225.08 130.299 229.566 130.845L229.807 128.86C226.371 128.442 223.424 125.267 223.938 121.044L221.953 120.802Z" fill="white" mask="url(#path-29-outside-9_0_1)"/>
<mask id="path-31-outside-10_0_1" maskUnits="userSpaceOnUse" x="250.723" y="111.48" width="54.3288" height="51.824" fill="black">
<rect fill="white" x="250.723" y="111.48" width="54.3288" height="51.824"/>
<path d="M300.26 133.923C302.352 147.411 289.825 157.075 280.002 158.598C268.727 160.347 257.57 153.718 255.682 141.544C253.472 127.294 262.977 118.241 275.152 116.353C290.439 113.982 298.866 124.93 300.26 133.923ZM279.614 145.129C284.525 144.367 286.117 140.012 285.505 136.069C285.301 134.755 283.984 128.088 276.928 129.182C271.118 130.083 270.219 135.252 270.702 138.365C271.442 143.138 275.671 145.74 279.614 145.129Z"/>
</mask>
<path d="M300.26 133.923C302.352 147.411 289.825 157.075 280.002 158.598C268.727 160.347 257.57 153.718 255.682 141.544C253.472 127.294 262.977 118.241 275.152 116.353C290.439 113.982 298.866 124.93 300.26 133.923ZM279.614 145.129C284.525 144.367 286.117 140.012 285.505 136.069C285.301 134.755 283.984 128.088 276.928 129.182C271.118 130.083 270.219 135.252 270.702 138.365C271.442 143.138 275.671 145.74 279.614 145.129Z" fill="black"/>
<path d="M299.272 134.076C300.26 140.448 297.809 145.937 293.876 150.057C289.926 154.194 284.537 156.883 279.849 157.61L280.156 159.587C285.29 158.79 291.077 155.885 295.323 151.438C299.586 146.973 302.352 140.886 301.249 133.769L299.272 134.076ZM279.849 157.61C269.038 159.287 258.461 152.941 256.67 141.391L254.694 141.697C256.678 154.496 268.416 161.407 280.156 159.587L279.849 157.61ZM256.67 141.391C255.607 134.533 257.363 129.004 260.786 124.959C264.225 120.894 269.41 118.255 275.305 117.341L274.998 115.365C268.719 116.338 263.064 119.17 259.259 123.667C255.438 128.183 253.547 134.305 254.694 141.697L256.67 141.391ZM275.305 117.341C282.663 116.2 288.299 118.263 292.268 121.638C296.264 125.037 298.609 129.799 299.272 134.076L301.249 133.769C300.517 129.053 297.951 123.846 293.564 120.115C289.149 116.361 282.928 114.135 274.998 115.365L275.305 117.341ZM279.767 146.117C282.526 145.689 284.418 144.226 285.504 142.279C286.57 140.367 286.825 138.056 286.493 135.916L284.517 136.222C284.796 138.024 284.561 139.863 283.757 141.305C282.972 142.712 281.613 143.807 279.461 144.141L279.767 146.117ZM286.493 135.916C286.384 135.214 285.975 133.024 284.594 131.133C283.893 130.173 282.93 129.272 281.619 128.696C280.303 128.118 278.702 127.895 276.775 128.194L277.082 130.17C278.683 129.922 279.892 130.122 280.814 130.527C281.741 130.934 282.442 131.577 282.979 132.312C284.071 133.809 284.422 135.61 284.517 136.222L286.493 135.916ZM276.775 128.194C273.543 128.695 271.592 130.42 270.56 132.499C269.554 134.525 269.45 136.815 269.714 138.518L271.69 138.211C271.471 136.801 271.575 134.951 272.351 133.389C273.1 131.88 274.503 130.57 277.082 130.17L276.775 128.194ZM269.714 138.518C270.542 143.859 275.301 146.809 279.767 146.117L279.461 144.141C276.04 144.671 272.342 142.416 271.69 138.211L269.714 138.518Z" fill="white" mask="url(#path-31-outside-10_0_1)"/>
<mask id="path-33-outside-11_0_1" maskUnits="userSpaceOnUse" x="306.711" y="84.1173" width="30.635" height="65.5157" fill="black">
<rect fill="white" x="306.711" y="84.1173" width="30.635" height="65.5157"/>
<path d="M323.722 147.657L309.865 145.214C309.107 145.08 308.596 144.35 308.73 143.592L318.66 87.2706C318.806 86.4434 319.535 85.9323 320.294 86.066L334.15 88.509C334.908 88.6427 335.419 89.3725 335.274 90.1998L325.344 146.521C325.21 147.279 324.48 147.79 323.722 147.657Z"/>
</mask>
<path d="M323.722 147.657L309.865 145.214C309.107 145.08 308.596 144.35 308.73 143.592L318.66 87.2706C318.806 86.4434 319.535 85.9323 320.294 86.066L334.15 88.509C334.908 88.6427 335.419 89.3725 335.274 90.1998L325.344 146.521C325.21 147.279 324.48 147.79 323.722 147.657Z" fill="black"/>
<path d="M323.895 146.672L310.039 144.229L309.692 146.199L323.548 148.642L323.895 146.672ZM310.039 144.229C309.825 144.191 309.677 143.98 309.715 143.766L307.745 143.418C307.515 144.721 308.39 145.969 309.692 146.199L310.039 144.229ZM309.715 143.766L319.645 87.4442L317.675 87.097L307.745 143.418L309.715 143.766ZM319.645 87.4442C319.7 87.1292 319.937 87.0185 320.12 87.0508L320.467 85.0812C319.134 84.8461 317.911 85.7576 317.675 87.097L319.645 87.4442ZM320.12 87.0508L333.976 89.4938L334.324 87.5242L320.467 85.0812L320.12 87.0508ZM333.976 89.4938C334.16 89.5261 334.344 89.7111 334.289 90.0261L336.258 90.3734C336.495 89.034 335.657 87.7593 334.324 87.5242L333.976 89.4938ZM334.289 90.0261L324.359 146.347L326.328 146.695L336.258 90.3734L334.289 90.0261ZM324.359 146.347C324.321 146.562 324.11 146.71 323.895 146.672L323.548 148.642C324.85 148.871 326.099 147.997 326.328 146.695L324.359 146.347Z" fill="white" mask="url(#path-33-outside-11_0_1)"/>
</mask>
<g mask="url(#mask0_0_1)">
<rect x="-13.5" y="54.5" width="456" height="231" fill="#D74E12" stroke="black"/>
<path d="M105.935 39.6168C111.909 41.294 118.173 41.6691 124.304 40.7167L184.883 31.3062C202.503 28.569 220.449 33.551 234.137 44.9799L254.363 61.8677C265.512 71.1768 279.575 76.2762 294.1 76.2762H333.535C355.511 76.2762 375.708 88.3566 386.103 107.719V107.719C394.137 122.684 408.169 133.515 424.681 137.498L476.002 149.877C491.931 153.719 505.692 163.711 514.276 177.669L534.86 211.138C540.812 220.817 543.68 232.077 543.083 243.424V243.424C541.074 281.593 502.267 306.583 466.687 292.618L246 206L76.6939 126.376C57.5007 117.349 46.9594 96.3772 51.1665 75.5889L51.742 72.7456C56.7403 48.0478 81.675 32.805 105.935 39.6168V39.6168Z" fill="#F9A52C"/>
<path d="M29.9702 45.2679C36.4998 48.454 43.8485 49.5641 51.0278 48.4488L109.883 39.3062C127.503 36.569 145.449 41.551 159.137 52.9799L179.363 69.8677C190.512 79.1768 204.575 84.2762 219.1 84.2762H258.535C280.511 84.2762 300.708 96.3566 311.103 115.719V115.719C319.137 130.684 333.169 141.515 349.681 145.498L401.002 157.877C416.931 161.719 430.692 171.711 439.276 185.669L461.761 222.23C466.494 229.926 469 238.783 469 247.818V247.818C469 278.838 440.462 302 410.106 295.619L137.715 238.355C124.286 235.532 112.172 228.333 103.273 217.886L-42.8725 46.3236C-43.6222 45.4435 -44.2811 44.4898 -44.8391 43.4771V43.4771C-52.9262 28.8005 -37.3426 12.423 -22.2825 19.7714L29.9702 45.2679Z" fill="#EFDF48"/>
<path d="M-81.5679 88.6299C-76.2225 77.3396 -65.5392 69.5104 -53.1632 67.8135L22.6418 57.4196C38.6346 55.2268 54.8521 59.3579 67.8468 68.9348L104.088 95.6435C114.743 103.497 127.633 107.733 140.87 107.733H206.218C227.862 107.733 247.94 119.021 259.188 137.513L263.63 144.815C272.501 159.4 286.993 169.682 303.689 173.236L379.763 189.433C395.155 192.71 408.725 201.717 417.722 214.629L438.997 245.162C449.91 260.824 450.392 281.496 440.221 297.649V297.649C429.828 314.155 410.405 322.634 391.235 319.034L233.76 289.458C228.608 288.49 223.598 286.872 218.853 284.644L0.684018 182.199C-2.43324 180.736 -5.42312 179.015 -8.2546 177.055L-69.192 134.867C-84.0782 124.561 -89.3156 104.994 -81.5679 88.6299V88.6299Z" fill="#8BD346"/>
<path d="M-48.7782 148.546C-42.2129 125.165 -22.6013 107.77 1.3961 104.042L31.8825 99.3062C49.503 96.569 67.449 101.551 81.1369 112.98L101.363 129.868C112.512 139.177 126.575 144.276 141.1 144.276H180.535C202.511 144.276 222.708 156.357 233.103 175.719V175.719C241.137 190.684 255.169 201.515 271.681 205.498L323.002 217.877C338.931 221.719 352.692 231.711 361.276 245.669L379.848 275.866C386.874 287.291 388.152 301.344 383.304 313.849V313.849C376.568 331.221 359.388 342.258 340.788 341.164L180.264 331.721C172.167 331.245 164.241 329.184 156.937 325.656L-21.2364 239.589C-48.2932 226.519 -62.0834 195.929 -53.9601 167L-48.7782 148.546Z" fill="#60DBE8"/>
<path d="M-66.5058 196.005C-65.6333 166.11 -43.5441 141.099 -13.9864 136.539L-5.65416 135.253C11.876 132.548 29.7251 137.481 43.3783 148.804L57.246 160.305C68.3714 169.531 82.3707 174.581 96.8242 174.581H129.78C149.242 174.581 167.138 185.251 176.392 202.372V202.372C183.554 215.62 196.014 225.195 210.66 228.704L262.764 241.188C272.907 243.617 281.679 249.956 287.169 258.824V258.824C301.646 282.203 288.428 312.855 261.489 318.375L204.683 330.016C198.268 331.33 192.102 333.653 186.414 336.897L92.9349 390.209C76.5456 399.556 56.792 400.932 39.2654 393.946L-30.7155 366.055C-54.9067 356.414 -70.4946 332.683 -69.7349 306.652L-66.5058 196.005Z" fill="#16A4D8"/>
<path d="M-18.0533 189C-15.3568 189 -12.6661 188.752 -10.0151 188.259L8.7669 184.764C21.4314 182.408 34.4436 186.444 43.5525 195.552V195.552C50.8822 202.882 60.8234 207 71.1892 207H79.4778C90.7475 207 100.967 213.618 105.577 223.902V223.902C109.016 231.575 115.659 237.346 123.737 239.68L134.299 242.731C148.149 246.732 159.733 256.27 166.318 269.094L169.211 274.727C173.016 282.135 175 290.344 175 298.673V298.673C175 327.194 152.199 350.481 123.684 351.083L1.30772 353.664C-33.4381 354.397 -62 326.432 -62 291.678V232.947C-62 208.676 -42.3244 189 -18.0533 189V189Z" fill="#9B5FE0"/>
</g>
<g filter="url(#filter1_d_0_1)">
<mask id="path-42-outside-12_0_1" maskUnits="userSpaceOnUse" x="109.478" y="165.023" width="67.5103" height="70.8881" fill="black">
<rect fill="white" x="109.478" y="165.023" width="67.5103" height="70.8881"/>
<path d="M159.467 172.889L173.319 174.919C174.219 175.051 174.869 175.924 174.807 176.835C174.414 181.447 173.544 189.314 172.397 197.14C171.707 201.85 170.938 206.619 170.003 210.585C166.412 226.401 151.867 232.477 138.846 230.569C126.172 228.712 114.95 219.356 116.382 203.789L119.44 170.845L119.46 170.706C119.592 169.806 120.386 169.215 121.228 169.267L135.389 170.635L135.528 170.655C136.359 170.777 136.95 171.571 136.897 172.412C133.861 204.723 134.712 196.5 133.932 204.238C133.387 209.889 137.275 213.289 141.708 213.938C146.279 214.608 151.356 212.31 152.703 206.494C153.457 203.279 154.176 198.857 154.876 194.078C155.79 187.844 156.597 180.888 157.243 174.544L157.263 174.406C157.477 172.951 158.774 172.788 159.467 172.889Z"/>
</mask>
<path d="M174.807 176.835L175.803 176.92L175.804 176.912L175.804 176.904L174.807 176.835ZM170.003 210.585L169.029 210.356L169.028 210.364L170.003 210.585ZM116.382 203.789L115.386 203.697L115.386 203.698L116.382 203.789ZM119.44 170.845L118.451 170.7L118.447 170.726L118.444 170.752L119.44 170.845ZM121.228 169.267L121.324 168.272L121.307 168.27L121.29 168.269L121.228 169.267ZM135.389 170.635L135.534 169.645L135.51 169.642L135.485 169.639L135.389 170.635ZM136.897 172.412L137.893 172.506L137.894 172.49L137.895 172.474L136.897 172.412ZM133.932 204.238L132.937 204.138L132.936 204.142L133.932 204.238ZM152.703 206.494L151.73 206.265L151.729 206.268L152.703 206.494ZM157.243 174.544L156.254 174.399L156.251 174.421L156.248 174.443L157.243 174.544ZM159.322 173.879L173.174 175.908L173.464 173.929L159.612 171.9L159.322 173.879ZM173.174 175.908C173.514 175.958 173.839 176.332 173.809 176.766L175.804 176.904C175.9 175.516 174.924 174.143 173.464 173.929L173.174 175.908ZM173.81 176.75C173.419 181.341 172.552 189.188 171.408 196.995L173.387 197.285C174.536 189.44 175.408 181.552 175.803 176.92L173.81 176.75ZM171.408 196.995C170.718 201.702 169.954 206.434 169.03 210.356L170.976 210.814C171.922 206.803 172.696 201.997 173.387 197.285L171.408 196.995ZM169.028 210.364C165.584 225.531 151.651 231.435 138.991 229.58L138.701 231.559C152.084 233.519 167.24 227.272 170.978 210.806L169.028 210.364ZM138.991 229.58C132.841 228.678 127.087 225.963 123.055 221.638C119.041 217.333 116.687 211.384 117.377 203.881L115.386 203.698C114.644 211.761 117.185 218.274 121.593 223.002C125.983 227.711 132.178 230.603 138.701 231.559L138.991 229.58ZM117.377 203.882L120.436 170.937L118.444 170.752L115.386 203.697L117.377 203.882ZM120.43 170.99L120.45 170.851L118.471 170.561L118.451 170.7L120.43 170.99ZM120.45 170.851C120.503 170.485 120.823 170.244 121.165 170.265L121.29 168.269C119.95 168.185 118.681 169.126 118.471 170.561L120.45 170.851ZM121.132 170.262L135.293 171.63L135.485 169.639L121.324 168.272L121.132 170.262ZM135.244 171.624L135.383 171.644L135.673 169.665L135.534 169.645L135.244 171.624ZM135.383 171.644C135.653 171.684 135.922 171.98 135.899 172.35L137.895 172.474C137.977 171.162 137.065 169.869 135.673 169.665L135.383 171.644ZM135.902 172.318C132.863 204.649 133.717 196.4 132.937 204.138L134.927 204.339C135.707 196.599 134.858 204.797 137.893 172.506L135.902 172.318ZM132.936 204.142C132.638 207.233 133.556 209.775 135.206 211.629C136.842 213.466 139.148 214.574 141.563 214.928L141.853 212.949C139.835 212.653 137.98 211.736 136.7 210.299C135.435 208.878 134.68 206.894 134.927 204.334L132.936 204.142ZM141.563 214.928C146.55 215.658 152.191 213.135 153.677 206.719L151.729 206.268C150.52 211.485 146.008 213.558 141.853 212.949L141.563 214.928ZM153.677 206.722C154.442 203.461 155.166 199.001 155.866 194.223L153.887 193.933C153.186 198.712 152.473 203.097 151.73 206.265L153.677 206.722ZM155.866 194.223C156.782 187.969 157.591 180.997 158.238 174.646L156.248 174.443C155.603 180.778 154.797 187.719 153.887 193.933L155.866 194.223ZM158.233 174.689L158.253 174.551L156.274 174.261L156.254 174.399L158.233 174.689ZM158.253 174.551C158.285 174.333 158.349 174.209 158.402 174.138C158.456 174.066 158.526 174.01 158.618 173.966C158.824 173.866 159.107 173.847 159.322 173.879L159.612 171.9C159.134 171.83 158.421 171.841 157.753 172.162C157.022 172.513 156.43 173.197 156.274 174.261L158.253 174.551Z" fill="white" mask="url(#path-42-outside-12_0_1)"/>
<mask id="path-44-outside-13_0_1" maskUnits="userSpaceOnUse" x="182" y="178" width="34" height="55" fill="black">
<rect fill="white" x="182" y="178" width="34" height="55"/>
<path d="M212.479 220.51L208.839 229.33C208.279 230.66 207.649 231.36 206.599 231.36C206.389 231.36 206.179 231.36 205.969 231.29C194.699 229.05 190.779 222.89 190.429 205.18L185.179 204.9C184.409 204.83 183.779 204.13 183.779 203.36L184.619 191.74C184.689 190.97 185.319 190.34 186.159 190.34L190.639 190.62C190.779 187.96 190.919 185.09 191.129 182.08C191.199 181.24 191.339 179.91 193.159 179.91H193.439L206.669 180.54C207.859 180.61 208.419 181.31 208.419 182.5C208.279 185.44 208.069 188.52 207.859 191.46L212.689 191.74C213.459 191.74 214.089 192.44 214.089 193.28L213.249 204.9C213.179 205.6 212.619 206.23 211.849 206.23H211.709L207.089 206.02C207.089 212.39 207.929 217.22 211.009 218.55C211.779 218.9 212.619 219.18 212.619 219.95C212.619 220.09 212.549 220.3 212.479 220.51Z"/>
</mask>
<path d="M212.479 220.51L213.404 220.891L213.417 220.859L213.428 220.826L212.479 220.51ZM208.839 229.33L209.761 229.718L209.764 229.711L208.839 229.33ZM205.969 231.29L206.285 230.341L206.226 230.321L206.164 230.309L205.969 231.29ZM190.429 205.18L191.429 205.16L191.411 204.231L190.483 204.181L190.429 205.18ZM185.179 204.9L185.089 205.896L185.107 205.898L185.126 205.899L185.179 204.9ZM183.779 203.36L182.782 203.288L182.779 203.324V203.36H183.779ZM184.619 191.74L183.623 191.649L183.623 191.659L183.622 191.668L184.619 191.74ZM186.159 190.34L186.222 189.342L186.19 189.34H186.159V190.34ZM190.639 190.62L190.577 191.618L191.585 191.681L191.638 190.673L190.639 190.62ZM191.129 182.08L190.133 181.997L190.132 182.01L191.129 182.08ZM193.439 179.91L193.487 178.911L193.463 178.91H193.439V179.91ZM206.669 180.54L206.728 179.542L206.717 179.541L206.669 180.54ZM208.419 182.5L209.418 182.548L209.419 182.524V182.5H208.419ZM207.859 191.46L206.862 191.389L206.79 192.4L207.801 192.458L207.859 191.46ZM212.689 191.74L212.631 192.738L212.66 192.74H212.689V191.74ZM214.089 193.28L215.087 193.352L215.089 193.316V193.28H214.089ZM213.249 204.9L214.244 205L214.246 204.986L214.247 204.972L213.249 204.9ZM211.709 206.23L211.664 207.229L211.687 207.23H211.709V206.23ZM207.089 206.02L207.135 205.021L206.089 204.974V206.02H207.089ZM211.009 218.55L211.423 217.64L211.414 217.636L211.406 217.632L211.009 218.55ZM211.555 220.129L207.915 228.949L209.764 229.711L213.404 220.891L211.555 220.129ZM207.918 228.942C207.657 229.56 207.425 229.919 207.214 230.119C207.04 230.285 206.866 230.36 206.599 230.36V232.36C207.383 232.36 208.049 232.085 208.592 231.568C209.099 231.086 209.461 230.43 209.761 229.718L207.918 228.942ZM206.599 230.36C206.487 230.36 206.424 230.359 206.367 230.355C206.317 230.351 206.295 230.344 206.285 230.341L205.653 232.239C206.041 232.368 206.412 232.36 206.599 232.36V230.36ZM206.164 230.309C200.691 229.221 197.197 227.228 194.961 223.52C192.673 219.726 191.604 213.989 191.429 205.16L189.429 205.2C189.605 214.081 190.67 220.279 193.248 224.553C195.877 228.912 199.978 231.119 205.774 232.271L206.164 230.309ZM190.483 204.181L185.233 203.901L185.126 205.899L190.376 206.179L190.483 204.181ZM185.27 203.904C185.022 203.882 184.779 203.62 184.779 203.36H182.779C182.779 204.64 183.797 205.778 185.089 205.896L185.27 203.904ZM184.777 203.432L185.617 191.812L183.622 191.668L182.782 203.288L184.777 203.432ZM185.615 191.831C185.64 191.554 185.858 191.34 186.159 191.34V189.34C184.781 189.34 183.738 190.386 183.623 191.649L185.615 191.831ZM186.097 191.338L190.577 191.618L190.702 189.622L186.222 189.342L186.097 191.338ZM191.638 190.673C191.778 188.008 191.918 185.149 192.127 182.15L190.132 182.01C189.921 185.031 189.78 187.912 189.641 190.567L191.638 190.673ZM192.126 182.163C192.163 181.715 192.211 181.411 192.338 181.207C192.387 181.128 192.446 181.069 192.539 181.022C192.638 180.971 192.825 180.91 193.159 180.91V178.91C191.96 178.91 191.12 179.376 190.638 180.153C190.222 180.824 190.165 181.605 190.133 181.997L192.126 182.163ZM193.159 180.91H193.439V178.91H193.159V180.91ZM193.392 180.909L206.622 181.539L206.717 179.541L193.487 178.911L193.392 180.909ZM206.611 181.538C207.018 181.562 207.17 181.681 207.235 181.756C207.313 181.845 207.419 182.049 207.419 182.5H209.419C209.419 181.761 209.246 181.02 208.746 180.444C208.233 179.854 207.511 179.588 206.728 179.542L206.611 181.538ZM207.42 182.452C207.281 185.38 207.072 188.45 206.862 191.389L208.857 191.531C209.067 188.59 209.278 185.5 209.418 182.548L207.42 182.452ZM207.801 192.458L212.631 192.738L212.747 190.742L207.917 190.462L207.801 192.458ZM212.689 192.74C212.76 192.74 212.85 192.771 212.937 192.867C213.025 192.964 213.089 193.11 213.089 193.28H215.089C215.089 191.983 214.102 190.74 212.689 190.74V192.74ZM213.092 193.208L212.252 204.828L214.247 204.972L215.087 193.352L213.092 193.208ZM212.254 204.8C212.242 204.923 212.185 205.04 212.105 205.12C212.031 205.194 211.947 205.23 211.849 205.23V207.23C213.22 207.23 214.132 206.119 214.244 205L212.254 204.8ZM211.849 205.23H211.709V207.23H211.849V205.23ZM211.755 205.231L207.135 205.021L207.044 207.019L211.664 207.229L211.755 205.231ZM206.089 206.02C206.089 209.23 206.299 212.138 206.93 214.439C207.557 216.728 208.662 218.626 210.613 219.468L211.406 217.632C210.276 217.144 209.421 215.962 208.859 213.911C208.3 211.872 208.089 209.18 208.089 206.02H206.089ZM210.595 219.46C210.835 219.569 210.968 219.623 211.162 219.714C211.331 219.793 211.451 219.858 211.537 219.917C211.623 219.976 211.641 220.006 211.637 220C211.634 219.995 211.628 219.984 211.623 219.969C211.619 219.954 211.619 219.946 211.619 219.95H213.619C213.619 219.111 213.125 218.581 212.669 218.268C212.267 217.992 211.728 217.778 211.423 217.64L210.595 219.46ZM211.619 219.95C211.619 219.907 211.624 219.883 211.623 219.89C211.622 219.895 211.619 219.911 211.611 219.941C211.593 220.005 211.568 220.082 211.531 220.194L213.428 220.826C213.461 220.728 213.505 220.595 213.54 220.467C213.572 220.352 213.619 220.159 213.619 219.95H211.619Z" fill="white" mask="url(#path-44-outside-13_0_1)"/>
<mask id="path-46-outside-14_0_1" maskUnits="userSpaceOnUse" x="221.96" y="164.411" width="38.6143" height="66.0923" fill="black">
<rect fill="white" x="221.96" y="164.411" width="38.6143" height="66.0923"/>
<path d="M256.95 223.792L243.488 227.7L243.352 227.732C242.603 227.909 241.913 227.425 241.667 226.692L232.109 193.923C231.915 193.105 232.315 192.363 233.116 192.102L246.578 188.194L246.714 188.162C247.395 188.001 248.154 188.469 248.315 189.15L257.89 221.987L257.922 222.123C258.083 222.805 257.615 223.563 256.95 223.792ZM246.453 176.426C247.759 181.944 244.328 187.504 238.811 188.811C233.225 190.133 227.665 186.702 226.359 181.185C225.036 175.6 228.467 170.039 234.052 168.717C239.57 167.41 245.13 170.841 246.453 176.426Z"/>
</mask>
<path d="M256.95 223.792L257.229 224.753L257.253 224.746L257.276 224.738L256.95 223.792ZM243.488 227.7L243.719 228.673L243.743 228.667L243.767 228.66L243.488 227.7ZM241.667 226.692L240.707 226.972L240.713 226.991L240.719 227.01L241.667 226.692ZM232.109 193.923L231.136 194.153L231.141 194.178L231.149 194.203L232.109 193.923ZM233.116 192.102L232.837 191.141L232.821 191.146L232.806 191.151L233.116 192.102ZM246.578 188.194L246.348 187.221L246.323 187.227L246.299 187.234L246.578 188.194ZM248.315 189.15L247.342 189.38L247.348 189.405L247.355 189.43L248.315 189.15ZM257.89 221.987L258.863 221.757L258.857 221.732L258.85 221.707L257.89 221.987ZM256.671 222.832L243.21 226.739L243.767 228.66L257.229 224.753L256.671 222.832ZM243.258 226.726L243.122 226.759L243.583 228.705L243.719 228.673L243.258 226.726ZM243.122 226.759C243.028 226.781 242.945 226.766 242.861 226.712C242.769 226.653 242.671 226.54 242.615 226.375L240.719 227.01C241.091 228.122 242.223 229.027 243.583 228.705L243.122 226.759ZM242.627 226.412L233.069 193.643L231.149 194.203L240.707 226.972L242.627 226.412ZM233.082 193.692C233.004 193.365 233.135 193.147 233.427 193.052L232.806 191.151C231.494 191.579 230.826 192.846 231.136 194.153L233.082 193.692ZM233.395 193.062L246.857 189.155L246.299 187.234L232.837 191.141L233.395 193.062ZM246.808 189.167L246.945 189.135L246.484 187.189L246.348 187.221L246.808 189.167ZM246.945 189.135C246.992 189.124 247.083 189.128 247.184 189.191C247.286 189.254 247.331 189.333 247.342 189.38L249.288 188.919C248.999 187.701 247.702 186.9 246.484 187.189L246.945 189.135ZM247.355 189.43L256.93 222.267L258.85 221.707L249.275 188.87L247.355 189.43ZM256.916 222.218L256.949 222.354L258.895 221.893L258.863 221.757L256.916 222.218ZM256.949 222.354C256.96 222.4 256.958 222.496 256.886 222.617C256.813 222.739 256.709 222.818 256.624 222.847L257.276 224.738C258.371 224.36 259.188 223.13 258.895 221.893L256.949 222.354ZM245.48 176.657C246.659 181.637 243.561 186.658 238.581 187.838L239.041 189.784C245.096 188.35 248.86 182.251 247.426 176.196L245.48 176.657ZM238.581 187.838C233.528 189.034 228.51 185.93 227.332 180.955L225.386 181.415C226.82 187.475 232.923 191.233 239.041 189.784L238.581 187.838ZM227.332 180.955C226.136 175.906 229.235 170.885 234.283 169.69L233.822 167.743C227.699 169.193 223.936 175.293 225.386 181.415L227.332 180.955ZM234.283 169.69C239.259 168.511 244.283 171.605 245.48 176.657L247.426 176.196C245.977 170.077 239.881 166.309 233.822 167.743L234.283 169.69Z" fill="white" mask="url(#path-46-outside-14_0_1)"/>
<mask id="path-48-outside-15_0_1" maskUnits="userSpaceOnUse" x="266.536" y="163.05" width="31.9135" height="65.6922" fill="black">
<rect fill="white" x="266.536" y="163.05" width="31.9135" height="65.6922"/>
<path d="M283.51 226.707L269.711 223.961C268.956 223.81 268.461 223.069 268.611 222.314L279.775 166.224C279.939 165.401 280.68 164.906 281.435 165.056L295.235 167.803C295.99 167.953 296.485 168.694 296.321 169.518L285.157 225.607C285.006 226.363 284.265 226.858 283.51 226.707Z"/>
</mask>
<path d="M283.705 225.726L269.906 222.98L269.516 224.941L283.315 227.688L283.705 225.726ZM269.906 222.98C269.693 222.937 269.549 222.723 269.592 222.509L267.63 222.119C267.372 223.416 268.219 224.683 269.516 224.941L269.906 222.98ZM269.592 222.509L280.756 166.42L278.795 166.029L267.63 222.119L269.592 222.509ZM280.756 166.42C280.818 166.106 281.058 166 281.24 166.037L281.631 164.075C280.303 163.811 279.06 164.695 278.795 166.029L280.756 166.42ZM281.24 166.037L295.039 168.783L295.43 166.822L281.631 164.075L281.24 166.037ZM295.039 168.783C295.222 168.82 295.402 169.009 295.34 169.322L297.301 169.713C297.567 168.379 296.758 167.086 295.43 166.822L295.039 168.783ZM295.34 169.322L284.176 225.412L286.137 225.803L297.301 169.713L295.34 169.322ZM284.176 225.412C284.133 225.626 283.919 225.769 283.705 225.726L283.315 227.688C284.612 227.946 285.879 227.099 286.137 225.803L284.176 225.412Z" fill="white" mask="url(#path-48-outside-15_0_1)"/>
<mask id="path-50-outside-16_0_1" maskUnits="userSpaceOnUse" x="303.176" y="174.882" width="35.5166" height="47.0558" fill="black">
<rect fill="white" x="303.176" y="174.882" width="35.5166" height="47.0558"/>
<path d="M315.451 219.898L314.685 219.98C313.154 220.144 312.428 219.94 311.883 218.802L307.955 211.057C307.863 210.856 307.771 210.654 307.756 210.515C307.644 209.471 309.021 209.183 309.856 209.093C313.955 208.583 315.695 206.425 315.516 204.754C315.419 203.85 314.394 202.833 313.285 201.685L311.182 199.798C307.746 196.647 306.173 193.789 305.889 191.144C305.045 183.279 315.942 177.886 325.06 176.908C327.774 176.616 328.5 176.82 329.122 178.021L333.12 185.758C333.289 186.022 333.311 186.23 333.334 186.439C333.416 187.205 332.68 187.565 331.775 187.663L331.497 187.692C327.321 188.14 325.869 189.704 326.019 191.096C326.146 192.279 327.331 193.49 330.29 196.129C333.865 199.266 335.593 202.248 335.877 204.893C336.758 213.106 324.777 218.897 315.451 219.898Z"/>
</mask>
<path d="M311.883 218.802L312.785 218.371L312.78 218.36L312.775 218.35L311.883 218.802ZM307.955 211.057L307.045 211.473L307.054 211.491L307.063 211.509L307.955 211.057ZM309.856 209.093L309.963 210.087L309.971 210.086L309.98 210.085L309.856 209.093ZM313.285 201.685L314.005 200.99L313.98 200.964L313.953 200.94L313.285 201.685ZM311.182 199.798L310.506 200.535L310.515 200.543L311.182 199.798ZM329.122 178.021L330.01 177.562L330.01 177.561L329.122 178.021ZM333.12 185.758L332.231 186.217L332.253 186.259L332.278 186.298L333.12 185.758ZM330.29 196.129L329.624 196.875L329.63 196.881L330.29 196.129ZM315.344 218.903L314.578 218.986L314.792 220.974L315.557 220.892L315.344 218.903ZM314.578 218.986C313.835 219.065 313.48 219.027 313.279 218.948C313.148 218.897 312.988 218.794 312.785 218.371L310.981 219.234C311.323 219.948 311.799 220.517 312.549 220.811C313.231 221.077 314.004 221.059 314.792 220.974L314.578 218.986ZM312.775 218.35L308.847 210.605L307.063 211.509L310.992 219.254L312.775 218.35ZM308.864 210.641C308.816 210.534 308.782 210.46 308.758 210.398C308.746 210.369 308.741 210.354 308.74 210.349C308.738 210.343 308.746 210.365 308.75 210.408L306.762 210.622C306.784 210.829 306.852 211.016 306.895 211.127C306.944 211.251 307.002 211.378 307.045 211.473L308.864 210.641ZM308.75 210.408C308.748 210.392 308.749 210.425 308.73 210.45C308.729 210.452 308.763 210.407 308.892 210.343C309.164 210.21 309.572 210.129 309.963 210.087L309.749 208.099C309.305 208.146 308.607 208.255 308.009 208.549C307.704 208.699 307.362 208.928 307.108 209.28C306.837 209.656 306.707 210.116 306.762 210.622L308.75 210.408ZM309.98 210.085C312.176 209.812 313.84 209.085 314.95 208.11C316.055 207.14 316.642 205.883 316.51 204.648L314.521 204.861C314.568 205.296 314.375 205.953 313.63 206.607C312.891 207.257 311.635 207.864 309.733 208.101L309.98 210.085ZM316.51 204.648C316.429 203.896 315.99 203.226 315.562 202.688C315.118 202.13 314.542 201.546 314.005 200.99L312.566 202.379C313.138 202.972 313.628 203.47 313.998 203.934C314.383 204.418 314.505 204.708 314.521 204.861L316.51 204.648ZM313.953 200.94L311.85 199.054L310.515 200.543L312.618 202.429L313.953 200.94ZM311.858 199.061C308.521 196.001 307.131 193.35 306.883 191.037L304.895 191.25C305.214 194.227 306.972 197.293 310.506 200.535L311.858 199.061ZM306.883 191.037C306.52 187.657 308.656 184.649 312.285 182.28C315.89 179.927 320.736 178.377 325.166 177.902L324.953 175.913C320.265 176.416 315.105 178.051 311.192 180.606C307.304 183.144 304.413 186.766 304.895 191.25L306.883 191.037ZM325.166 177.902C326.544 177.754 327.221 177.762 327.61 177.869C327.769 177.913 327.857 177.968 327.927 178.033C328.008 178.108 328.107 178.235 328.234 178.48L330.01 177.561C329.826 177.206 329.601 176.857 329.286 176.566C328.96 176.264 328.58 176.061 328.141 175.94C327.333 175.718 326.29 175.77 324.953 175.913L325.166 177.902ZM328.233 178.48L332.231 186.217L334.008 185.299L330.01 177.562L328.233 178.48ZM332.278 186.298C332.305 186.34 332.311 186.362 332.315 186.376C332.322 186.403 332.327 186.434 332.339 186.546L334.328 186.333C334.302 186.095 334.263 185.688 333.961 185.218L332.278 186.298ZM332.339 186.546C332.341 186.564 332.336 186.535 332.358 186.492C332.376 186.455 332.391 186.455 332.356 186.479C332.319 186.504 332.245 186.544 332.12 186.582C331.998 186.619 331.846 186.649 331.669 186.668L331.882 188.657C332.409 188.6 333.009 188.458 333.493 188.125C334.036 187.749 334.414 187.131 334.328 186.333L332.339 186.546ZM331.669 186.668L331.39 186.698L331.603 188.687L331.882 188.657L331.669 186.668ZM331.39 186.698C329.212 186.932 327.614 187.467 326.553 188.228C325.467 189.006 324.903 190.067 325.024 191.203L327.013 190.989C326.985 190.733 327.072 190.316 327.718 189.853C328.39 189.372 329.606 188.901 331.603 188.687L331.39 186.698ZM325.024 191.203C325.121 192.103 325.613 192.894 326.339 193.725C327.069 194.559 328.152 195.562 329.624 196.875L330.956 195.383C329.47 194.057 328.48 193.135 327.845 192.409C327.207 191.679 327.043 191.273 327.013 190.989L325.024 191.203ZM329.63 196.881C333.109 199.933 334.636 202.705 334.882 205L336.871 204.787C336.55 201.792 334.62 198.598 330.949 195.378L329.63 196.881ZM334.882 205C335.261 208.534 332.892 211.73 328.951 214.259C325.048 216.763 319.874 218.417 315.344 218.903L315.557 220.892C320.354 220.378 325.833 218.636 330.032 215.942C334.192 213.272 337.373 209.465 336.871 204.787L334.882 205Z" fill="white" mask="url(#path-50-outside-16_0_1)"/>
<mask id="path-52-outside-17_0_1" maskUnits="userSpaceOnUse" x="64.019" y="92.6496" width="49.1605" height="69.2605" fill="black">
<rect fill="white" x="64.019" y="92.6496" width="49.1605" height="69.2605"/>
<path d="M68.701 152.253L68.5988 141.502C68.559 141.351 68.6022 141.145 68.631 141.008C68.8468 139.981 69.9464 139.854 70.3574 139.94L70.6314 139.998C75.2898 140.976 80.8772 139.575 81.7837 135.259C82.2586 132.999 81.4572 130.684 78.9666 124.153C77.0501 119.316 76.6228 115.22 77.3279 111.864C79.6015 101.04 93.213 97.533 104.722 99.9505C107.394 100.512 108.706 101.073 108.815 102.598L109.083 113.241C109.108 113.461 109.065 113.666 109.036 113.803C108.806 114.899 107.692 115.094 107.281 115.008L106.87 114.922C102.417 113.986 97.8932 114.753 97.073 118.658C96.5837 120.987 97.62 124.566 99.8359 129.681C101.821 134.533 102.248 138.628 101.529 142.053C99.1401 153.425 84.0974 157.275 72.246 154.786C71.561 154.642 70.9444 154.512 70.2738 154.3C69.3832 154.113 68.7194 153.187 68.701 152.253Z"/>
</mask>
<path d="M68.701 152.253L67.701 152.262L67.7012 152.273L68.701 152.253ZM68.5988 141.502L69.5987 141.493L69.5975 141.369L69.566 141.248L68.5988 141.502ZM78.9666 124.153L79.9011 123.797L79.8963 123.785L78.9666 124.153ZM108.815 102.598L109.815 102.573L109.814 102.55L109.812 102.527L108.815 102.598ZM109.083 113.241L108.083 113.266L108.084 113.311L108.09 113.355L109.083 113.241ZM99.8359 129.681L100.761 129.302L100.758 129.293L100.754 129.283L99.8359 129.681ZM70.2738 154.3L70.5757 153.346L70.5282 153.331L70.4793 153.321L70.2738 154.3ZM69.7009 152.243L69.5987 141.493L67.5988 141.512L67.701 152.262L69.7009 152.243ZM69.566 141.248C69.5736 141.277 69.5776 141.301 69.5797 141.318C69.5819 141.335 69.5825 141.348 69.5827 141.355C69.583 141.368 69.5821 141.37 69.5834 141.357C69.5847 141.345 69.5873 141.327 69.5919 141.302C69.5967 141.276 69.6022 141.249 69.6096 141.214L67.6523 140.803C67.6391 140.866 67.6105 140.998 67.5949 141.143C67.5806 141.276 67.5661 141.507 67.6315 141.756L69.566 141.248ZM69.6096 141.214C69.6277 141.128 69.6562 141.088 69.6765 141.066C69.7013 141.038 69.7426 141.006 69.8104 140.978C69.8797 140.948 69.9611 140.929 70.0403 140.922C70.1259 140.913 70.1676 140.922 70.1518 140.919L70.563 138.962C70.1587 138.877 69.5735 138.906 69.0316 139.136C68.4417 139.385 67.8409 139.905 67.6523 140.803L69.6096 141.214ZM70.1518 140.919L70.4258 140.977L70.837 139.019L70.563 138.962L70.1518 140.919ZM70.4258 140.977C72.9089 141.498 75.6641 141.394 77.9588 140.553C80.2637 139.707 82.2168 138.062 82.7623 135.465L80.8051 135.054C80.444 136.772 79.1502 137.986 77.2701 138.675C75.38 139.368 73.0123 139.476 70.837 139.019L70.4258 140.977ZM82.7623 135.465C83.0439 134.125 82.9281 132.81 82.4527 131.047C81.9844 129.311 81.1405 127.047 79.901 123.797L78.0322 124.509C79.2833 127.79 80.0853 129.95 80.5217 131.568C80.9509 133.16 80.9984 134.133 80.8051 135.054L82.7623 135.465ZM79.8963 123.785C78.0299 119.074 77.6525 115.183 78.3065 112.069L76.3492 111.658C75.5931 115.258 76.0702 119.557 78.0369 124.521L79.8963 123.785ZM78.3065 112.069C79.3537 107.084 83.0086 103.722 87.9136 101.878C92.8332 100.028 98.9163 99.7528 104.516 100.929L104.927 98.9718C99.0186 97.7307 92.5415 98.0006 87.2097 100.006C81.8633 102.016 77.5757 105.819 76.3492 111.658L78.3065 112.069ZM104.516 100.929C105.857 101.211 106.702 101.466 107.219 101.773C107.459 101.916 107.59 102.048 107.668 102.167C107.742 102.281 107.801 102.433 107.818 102.67L109.812 102.527C109.775 102.001 109.628 101.511 109.343 101.074C109.06 100.64 108.676 100.312 108.24 100.053C107.406 99.5577 106.258 99.2513 104.927 98.9718L104.516 100.929ZM107.815 102.624L108.083 113.266L110.083 113.216L109.815 102.573L107.815 102.624ZM108.09 113.355C108.091 113.368 108.092 113.393 108.087 113.437C108.081 113.483 108.072 113.527 108.058 113.598L110.015 114.009C110.042 113.879 110.123 113.527 110.076 113.126L108.09 113.355ZM108.058 113.598C108.034 113.713 107.993 113.78 107.956 113.824C107.916 113.872 107.861 113.915 107.788 113.95C107.713 113.987 107.631 114.01 107.557 114.02C107.474 114.032 107.448 114.021 107.487 114.03L107.076 115.987C107.52 116.08 108.127 116.01 108.665 115.748C109.253 115.461 109.826 114.908 110.015 114.009L108.058 113.598ZM107.487 114.03L107.076 113.943L106.665 115.9L107.076 115.987L107.487 114.03ZM107.076 113.943C104.751 113.455 102.32 113.389 100.309 114.021C98.2528 114.667 96.5942 116.072 96.0943 118.452L98.0516 118.863C98.3719 117.338 99.3855 116.408 100.909 115.929C102.479 115.435 104.536 115.453 106.665 115.9L107.076 113.943ZM96.0943 118.452C95.803 119.839 95.9821 121.493 96.4722 123.377C96.9661 125.275 97.8023 127.503 98.9183 130.079L100.754 129.283C99.6536 126.745 98.8637 124.625 98.4078 122.873C97.9481 121.106 97.8536 119.806 98.0516 118.863L96.0943 118.452ZM98.9104 130.06C100.841 134.778 101.218 138.666 100.55 141.848L102.507 142.259C103.278 138.59 102.801 134.288 100.761 129.302L98.9104 130.06ZM100.55 141.848C99.4489 147.09 95.4245 150.683 90.0855 152.681C84.7414 154.68 78.2126 155.017 72.4516 153.807L72.0405 155.764C78.1308 157.044 85.049 156.7 90.7863 154.554C96.5287 152.406 101.22 148.388 102.507 142.259L100.55 141.848ZM72.4516 153.807C71.7611 153.662 71.1918 153.542 70.5757 153.346L69.9719 155.253C70.6971 155.483 71.3609 155.622 72.0405 155.764L72.4516 153.807ZM70.4793 153.321C70.1202 153.246 69.7117 152.783 69.7008 152.233L67.7012 152.273C67.7272 153.59 68.6462 154.98 70.0682 155.278L70.4793 153.321Z" fill="white" mask="url(#path-52-outside-17_0_1)"/>
<mask id="path-54-outside-18_0_1" maskUnits="userSpaceOnUse" x="109" y="118" width="44" height="45" fill="black">
<rect fill="white" x="109" y="118" width="44" height="45"/>
<path d="M147.481 124.54L144.191 133.01C143.911 133.85 143.141 134.55 142.301 134.55C142.021 134.55 141.671 134.41 141.391 134.2C140.131 133.15 137.681 132.38 135.231 132.38C133.411 132.38 127.321 132.8 127.321 140.43C127.321 145.12 130.681 148.2 135.231 148.2C138.241 148.2 141.741 146.87 145.101 143.79C145.521 143.37 146.151 143.02 146.781 143.02C147.271 143.02 147.831 143.3 148.321 144.14C149.581 146.52 150.421 147.78 151.541 150.09C151.751 150.51 151.891 151 151.891 151.49C151.891 152.33 151.541 153.1 150.701 153.94C145.031 159.33 138.311 161.71 132.011 161.71C120.391 161.71 110.101 153.59 110.101 141.27C110.101 125.59 122.631 119.22 134.181 119.22C141.951 119.22 147.551 122.3 147.551 124.05C147.551 124.19 147.551 124.4 147.481 124.54Z"/>
</mask>
<path d="M147.481 124.54L146.587 124.093L146.566 124.134L146.549 124.178L147.481 124.54ZM144.191 133.01L143.259 132.648L143.25 132.671L143.243 132.694L144.191 133.01ZM141.391 134.2L140.751 134.968L140.771 134.985L140.791 135L141.391 134.2ZM145.101 143.79L145.777 144.527L145.793 144.512L145.809 144.497L145.101 143.79ZM148.321 144.14L149.205 143.672L149.196 143.654L149.185 143.636L148.321 144.14ZM151.541 150.09L150.642 150.526L150.647 150.537L151.541 150.09ZM150.701 153.94L151.39 154.665L151.4 154.656L151.409 154.647L150.701 153.94ZM146.549 124.178L143.259 132.648L145.124 133.372L148.414 124.902L146.549 124.178ZM143.243 132.694C143.058 133.249 142.594 133.55 142.301 133.55V135.55C143.689 135.55 144.765 134.451 145.14 133.326L143.243 132.694ZM142.301 133.55C142.318 133.55 142.285 133.552 142.209 133.522C142.138 133.494 142.06 133.451 141.991 133.4L140.791 135C141.185 135.295 141.741 135.55 142.301 135.55V133.55ZM142.032 133.432C140.536 132.186 137.831 131.38 135.231 131.38V133.38C137.532 133.38 139.726 134.114 140.751 134.968L142.032 133.432ZM135.231 131.38C134.27 131.38 132.066 131.485 130.076 132.688C128.002 133.943 126.321 136.295 126.321 140.43H128.321C128.321 136.935 129.686 135.262 131.112 134.399C132.622 133.485 134.373 133.38 135.231 133.38V131.38ZM126.321 140.43C126.321 143.024 127.256 145.234 128.877 146.794C130.493 148.35 132.728 149.2 135.231 149.2V147.2C133.184 147.2 131.465 146.51 130.264 145.353C129.067 144.201 128.321 142.526 128.321 140.43H126.321ZM135.231 149.2C138.539 149.2 142.271 147.741 145.777 144.527L144.426 143.053C141.212 145.999 137.944 147.2 135.231 147.2V149.2ZM145.809 144.497C146.105 144.2 146.495 144.02 146.781 144.02V142.02C145.807 142.02 144.938 142.54 144.394 143.083L145.809 144.497ZM146.781 144.02C146.826 144.02 146.896 144.03 146.997 144.097C147.105 144.169 147.27 144.323 147.458 144.644L149.185 143.636C148.571 142.582 147.724 142.02 146.781 142.02V144.02ZM147.438 144.608C148.753 147.092 149.521 148.215 150.642 150.526L152.441 149.654C151.322 147.345 150.41 145.948 149.205 143.672L147.438 144.608ZM150.647 150.537C150.802 150.846 150.891 151.184 150.891 151.49H152.891C152.891 150.816 152.701 150.174 152.436 149.643L150.647 150.537ZM150.891 151.49C150.891 151.993 150.705 152.522 149.994 153.233L151.409 154.647C152.378 153.678 152.891 152.667 152.891 151.49H150.891ZM150.012 153.215C144.528 158.429 138.055 160.71 132.011 160.71V162.71C138.568 162.71 145.535 160.231 151.39 154.665L150.012 153.215ZM132.011 160.71C120.828 160.71 111.101 152.928 111.101 141.27H109.101C109.101 154.252 119.955 162.71 132.011 162.71V160.71ZM111.101 141.27C111.101 133.732 114.097 128.514 118.423 125.155C122.784 121.769 128.572 120.22 134.181 120.22V118.22C128.241 118.22 121.988 119.856 117.197 123.575C112.371 127.321 109.101 133.128 109.101 141.27H111.101ZM134.181 120.22C137.941 120.22 141.152 120.966 143.395 121.902C144.521 122.371 145.37 122.874 145.918 123.327C146.192 123.554 146.366 123.748 146.464 123.896C146.567 124.049 146.551 124.096 146.551 124.05H148.551C148.551 123.567 148.361 123.135 148.127 122.784C147.889 122.428 147.565 122.095 147.192 121.787C146.447 121.17 145.411 120.575 144.165 120.056C141.666 119.014 138.192 118.22 134.181 118.22V120.22ZM146.551 124.05C146.551 124.086 146.551 124.113 146.551 124.14C146.55 124.166 146.549 124.183 146.548 124.195C146.546 124.208 146.546 124.206 146.549 124.194C146.55 124.187 146.554 124.175 146.559 124.158C146.565 124.142 146.574 124.12 146.587 124.093L148.376 124.987C148.491 124.757 148.524 124.528 148.538 124.395C148.552 124.25 148.551 124.114 148.551 124.05H146.551Z" fill="white" mask="url(#path-54-outside-18_0_1)"/>
<mask id="path-56-outside-19_0_1" maskUnits="userSpaceOnUse" x="153.886" y="91.6958" width="58.3048" height="69.0074" fill="black">
<rect fill="white" x="153.886" y="91.6958" width="58.3048" height="69.0074"/>
<path d="M209.376 148.088L203.322 154.202C202.621 154.908 201.946 155.189 201.32 155.254C201.041 155.283 187.915 154.247 186.454 140.112C185.583 131.687 181.374 129.096 176.361 129.614L176.013 129.65L178.626 154.925C178.712 155.761 178.15 156.452 177.384 156.532L163.458 157.971C162.623 158.057 161.931 157.496 161.845 156.66L155.958 99.7034C155.878 98.9375 156.433 98.1764 157.269 98.0901L171.195 96.6506C171.96 96.5715 172.659 97.203 172.738 97.9689L174.61 116.072C175.438 115.916 176.273 115.83 177.039 115.751C190.13 114.398 201.38 121.117 203.014 134.882C203.551 139.4 204.817 142.788 208.509 145.151C208.963 145.456 209.801 146.073 209.88 146.839C209.916 147.187 209.82 147.619 209.376 148.088Z"/>
</mask>
<path d="M209.376 148.088L210.086 148.791L210.094 148.784L210.101 148.776L209.376 148.088ZM203.322 154.202L204.032 154.907L204.033 154.906L203.322 154.202ZM176.013 129.65L175.91 128.655L174.915 128.758L175.018 129.753L176.013 129.65ZM174.61 116.072L173.615 116.175L173.727 117.256L174.795 117.055L174.61 116.072ZM203.014 134.882L202.021 134.999L202.021 135L203.014 134.882ZM208.509 145.151L209.067 144.321L209.057 144.315L209.048 144.309L208.509 145.151ZM208.665 147.384L202.611 153.499L204.033 154.906L210.086 148.791L208.665 147.384ZM202.613 153.498C202.058 154.056 201.592 154.22 201.217 154.259L201.422 156.248C202.301 156.158 203.184 155.76 204.032 154.907L202.613 153.498ZM201.217 154.259C201.296 154.251 201.352 154.256 201.303 154.254C201.286 154.253 201.254 154.251 201.207 154.247C201.114 154.239 200.975 154.225 200.797 154.2C200.439 154.152 199.932 154.064 199.321 153.916C198.097 153.619 196.478 153.081 194.831 152.128C191.569 150.244 188.142 146.715 187.449 140.009L185.459 140.215C186.227 147.644 190.093 151.7 193.83 153.86C195.681 154.93 197.488 155.529 198.849 155.859C199.531 156.025 200.106 156.124 200.525 156.182C200.735 156.211 200.908 156.229 201.039 156.24C201.103 156.246 201.161 156.25 201.21 156.252C201.227 156.253 201.326 156.259 201.422 156.248L201.217 154.259ZM187.449 140.009C186.999 135.66 185.671 132.634 183.636 130.772C181.583 128.892 178.965 128.34 176.258 128.619L176.464 130.609C178.77 130.37 180.764 130.854 182.286 132.247C183.827 133.657 185.038 136.139 185.459 140.215L187.449 140.009ZM176.258 128.619L175.91 128.655L176.116 130.645L176.464 130.609L176.258 128.619ZM175.018 129.753L177.631 155.028L179.62 154.823L177.008 129.547L175.018 129.753ZM177.631 155.028C177.664 155.346 177.466 155.518 177.281 155.537L177.487 157.526C178.834 157.387 179.76 156.175 179.62 154.823L177.631 155.028ZM177.281 155.537L163.356 156.976L163.561 158.966L177.487 157.526L177.281 155.537ZM163.356 156.976C163.069 157.006 162.869 156.843 162.84 156.557L160.85 156.763C160.993 158.148 162.176 159.109 163.561 158.966L163.356 156.976ZM162.84 156.557L156.952 99.6006L154.963 99.8063L160.85 156.763L162.84 156.557ZM156.952 99.6006C156.927 99.3531 157.116 99.1112 157.372 99.0848L157.166 97.0954C155.75 97.2417 154.83 98.522 154.963 99.8063L156.952 99.6006ZM157.372 99.0848L171.297 97.6453L171.092 95.6559L157.166 97.0954L157.372 99.0848ZM171.297 97.6453C171.37 97.6378 171.468 97.6607 171.568 97.7475C171.67 97.8362 171.732 97.958 171.744 98.0717L173.733 97.8661C173.604 96.6143 172.468 95.5136 171.092 95.6559L171.297 97.6453ZM171.744 98.0717L173.615 116.175L175.604 115.97L173.733 97.8661L171.744 98.0717ZM174.795 117.055C175.576 116.908 176.37 116.825 177.142 116.746L176.937 114.756C176.177 114.835 175.3 114.925 174.424 115.09L174.795 117.055ZM177.142 116.746C183.496 116.089 189.331 117.398 193.752 120.468C198.157 123.527 201.236 128.384 202.021 134.999L204.007 134.764C203.158 127.614 199.795 122.23 194.893 118.826C190.008 115.434 183.673 114.06 176.937 114.756L177.142 116.746ZM202.021 135C202.574 139.653 203.914 143.398 207.97 145.993L209.048 144.309C205.719 142.178 204.528 139.147 204.007 134.764L202.021 135ZM207.951 145.981C208.162 146.123 208.413 146.305 208.613 146.514C208.826 146.736 208.879 146.882 208.885 146.942L210.875 146.736C210.802 146.03 210.396 145.484 210.057 145.13C209.705 144.763 209.31 144.484 209.067 144.321L207.951 145.981ZM208.885 146.942C208.889 146.979 208.887 147.023 208.866 147.082C208.844 147.143 208.79 147.252 208.65 147.399L210.101 148.776C210.731 148.112 210.943 147.396 210.875 146.736L208.885 146.942Z" fill="white" mask="url(#path-56-outside-19_0_1)"/>
<mask id="path-58-outside-20_0_1" maskUnits="userSpaceOnUse" x="203.583" y="96.7034" width="53.0842" height="50.4686" fill="black">
<rect fill="white" x="203.583" y="96.7034" width="53.0842" height="50.4686"/>
<path d="M252.6 124.673C250.951 138.223 236.271 144.123 226.404 142.922C215.077 141.544 206.138 132.135 207.626 119.905C209.368 105.591 220.974 99.4577 233.204 100.946C248.561 102.815 253.699 115.639 252.6 124.673ZM229.686 129.853C234.62 130.453 237.334 126.693 237.816 122.733C237.977 121.412 238.519 114.638 231.431 113.776C225.594 113.065 223.326 117.796 222.946 120.923C222.362 125.718 225.726 129.371 229.686 129.853Z"/>
</mask>
<path d="M251.607 124.552C250.828 130.953 246.979 135.57 242.075 138.468C237.15 141.377 231.234 142.502 226.524 141.929L226.283 143.915C231.441 144.542 237.798 143.317 243.092 140.19C248.407 137.05 252.723 131.942 253.592 124.793L251.607 124.552ZM226.524 141.929C215.664 140.608 207.207 131.629 208.619 120.026L206.634 119.784C205.069 132.641 214.49 142.48 226.283 143.915L226.524 141.929ZM208.619 120.026C209.457 113.137 212.649 108.292 217.041 105.328C221.454 102.351 227.161 101.218 233.083 101.939L233.325 99.9532C227.017 99.1857 220.806 100.376 215.923 103.671C211.019 106.98 207.537 112.359 206.634 119.784L208.619 120.026ZM233.083 101.939C240.474 102.838 245.339 106.354 248.242 110.68C251.166 115.035 252.13 120.256 251.607 124.552L253.592 124.793C254.169 120.056 253.113 114.347 249.903 109.565C246.673 104.754 241.29 100.922 233.325 99.9532L233.083 101.939ZM229.566 130.845C232.337 131.183 234.555 130.288 236.129 128.709C237.675 127.158 238.547 125.004 238.809 122.853L236.823 122.612C236.603 124.422 235.877 126.128 234.712 127.297C233.575 128.438 231.969 129.123 229.807 128.86L229.566 130.845ZM238.809 122.853C238.894 122.148 239.094 119.93 238.279 117.734C237.865 116.621 237.183 115.492 236.077 114.582C234.968 113.668 233.487 113.019 231.552 112.783L231.31 114.768C232.919 114.964 234.028 115.485 234.806 116.125C235.587 116.769 236.087 117.578 236.404 118.431C237.049 120.168 236.898 121.997 236.823 122.612L238.809 122.853ZM231.552 112.783C228.305 112.388 225.959 113.518 224.401 115.239C222.883 116.916 222.161 119.092 221.953 120.802L223.938 121.044C224.111 119.627 224.713 117.875 225.883 116.582C227.014 115.333 228.72 114.453 231.31 114.768L231.552 112.783ZM221.953 120.802C221.3 126.168 225.08 130.299 229.566 130.845L229.807 128.86C226.371 128.442 223.424 125.267 223.938 121.044L221.953 120.802Z" fill="white" mask="url(#path-58-outside-20_0_1)"/>
<mask id="path-60-outside-21_0_1" maskUnits="userSpaceOnUse" x="250.723" y="111.48" width="54.3288" height="51.824" fill="black">
<rect fill="white" x="250.723" y="111.48" width="54.3288" height="51.824"/>
<path d="M300.26 133.923C302.352 147.411 289.825 157.075 280.002 158.598C268.727 160.347 257.57 153.718 255.682 141.544C253.472 127.294 262.977 118.241 275.152 116.353C290.439 113.982 298.866 124.93 300.26 133.923ZM279.614 145.129C284.525 144.367 286.117 140.012 285.505 136.069C285.301 134.755 283.984 128.088 276.928 129.182C271.118 130.083 270.219 135.252 270.702 138.365C271.442 143.138 275.671 145.74 279.614 145.129Z"/>
</mask>
<path d="M299.272 134.076C300.26 140.448 297.809 145.937 293.876 150.057C289.926 154.194 284.537 156.883 279.849 157.61L280.156 159.587C285.29 158.79 291.077 155.885 295.323 151.438C299.586 146.973 302.352 140.886 301.249 133.769L299.272 134.076ZM279.849 157.61C269.038 159.287 258.461 152.941 256.67 141.391L254.694 141.697C256.678 154.496 268.416 161.407 280.156 159.587L279.849 157.61ZM256.67 141.391C255.607 134.533 257.363 129.004 260.786 124.959C264.225 120.894 269.41 118.255 275.305 117.341L274.998 115.365C268.719 116.338 263.064 119.17 259.259 123.667C255.438 128.183 253.547 134.305 254.694 141.697L256.67 141.391ZM275.305 117.341C282.663 116.2 288.299 118.263 292.268 121.638C296.264 125.037 298.609 129.799 299.272 134.076L301.249 133.769C300.517 129.053 297.951 123.846 293.564 120.115C289.149 116.361 282.928 114.135 274.998 115.365L275.305 117.341ZM279.767 146.117C282.526 145.689 284.418 144.226 285.504 142.279C286.57 140.367 286.825 138.056 286.493 135.916L284.517 136.222C284.796 138.024 284.561 139.863 283.757 141.305C282.972 142.712 281.613 143.807 279.461 144.141L279.767 146.117ZM286.493 135.916C286.384 135.214 285.975 133.024 284.594 131.133C283.893 130.173 282.93 129.272 281.619 128.696C280.303 128.118 278.702 127.895 276.775 128.194L277.082 130.17C278.683 129.922 279.892 130.122 280.814 130.527C281.741 130.934 282.442 131.577 282.979 132.312C284.071 133.809 284.422 135.61 284.517 136.222L286.493 135.916ZM276.775 128.194C273.543 128.695 271.592 130.42 270.56 132.499C269.554 134.525 269.45 136.815 269.714 138.518L271.69 138.211C271.471 136.801 271.575 134.951 272.351 133.389C273.1 131.88 274.503 130.57 277.082 130.17L276.775 128.194ZM269.714 138.518C270.542 143.859 275.301 146.809 279.767 146.117L279.461 144.141C276.04 144.671 272.342 142.416 271.69 138.211L269.714 138.518Z" fill="white" mask="url(#path-60-outside-21_0_1)"/>
<mask id="path-62-outside-22_0_1" maskUnits="userSpaceOnUse" x="306.711" y="84.1173" width="30.635" height="65.5157" fill="black">
<rect fill="white" x="306.711" y="84.1173" width="30.635" height="65.5157"/>
<path d="M323.722 147.657L309.865 145.214C309.107 145.08 308.596 144.35 308.73 143.592L318.66 87.2706C318.806 86.4434 319.535 85.9323 320.294 86.066L334.15 88.509C334.908 88.6427 335.419 89.3725 335.274 90.1998L325.344 146.521C325.21 147.279 324.48 147.79 323.722 147.657Z"/>
</mask>
<path d="M323.895 146.672L310.039 144.229L309.692 146.199L323.548 148.642L323.895 146.672ZM310.039 144.229C309.825 144.191 309.677 143.98 309.715 143.766L307.745 143.418C307.515 144.721 308.39 145.969 309.692 146.199L310.039 144.229ZM309.715 143.766L319.645 87.4442L317.675 87.097L307.745 143.418L309.715 143.766ZM319.645 87.4442C319.7 87.1292 319.937 87.0185 320.12 87.0508L320.467 85.0812C319.134 84.8461 317.911 85.7576 317.675 87.097L319.645 87.4442ZM320.12 87.0508L333.976 89.4938L334.324 87.5242L320.467 85.0812L320.12 87.0508ZM333.976 89.4938C334.16 89.5261 334.344 89.7111 334.289 90.0261L336.258 90.3734C336.495 89.034 335.657 87.7593 334.324 87.5242L333.976 89.4938ZM334.289 90.0261L324.359 146.347L326.328 146.695L336.258 90.3734L334.289 90.0261ZM324.359 146.347C324.321 146.562 324.11 146.71 323.895 146.672L323.548 148.642C324.85 148.871 326.099 147.997 326.328 146.695L324.359 146.347Z" fill="white" mask="url(#path-62-outside-22_0_1)"/>
</g>
<defs>
<filter id="filter0_d_0_1" x="40" y="68" width="327" height="202" filterUnits="userSpaceOnUse" color-interpolation-filters="sRGB">
<feFlood flood-opacity="0" result="BackgroundImageFix"/>
<feColorMatrix in="SourceAlpha" type="matrix" values="0 0 0 0 0 0 0 0 0 0 0 0 0 0 0 0 0 0 127 0" result="hardAlpha"/>
<feOffset dy="10"/>
<feComposite in2="hardAlpha" operator="out"/>
<feColorMatrix type="matrix" values="0 0 0 0 0.0862745 0 0 0 0 0.643137 0 0 0 0 0.847059 0 0 0 1 0"/>
<feBlend mode="normal" in2="BackgroundImageFix" result="effect1_dropShadow_0_1"/>
<feBlend mode="normal" in="SourceGraphic" in2="effect1_dropShadow_0_1" result="shape"/>
</filter>
<filter id="filter1_d_0_1" x="63.0121" y="82.8229" width="279.224" height="156.856" filterUnits="userSpaceOnUse" color-interpolation-filters="sRGB">
<feFlood flood-opacity="0" result="BackgroundImageFix"/>
<feColorMatrix in="SourceAlpha" type="matrix" values="0 0 0 0 0 0 0 0 0 0 0 0 0 0 0 0 0 0 127 0" result="hardAlpha"/>
<feOffset dx="1" dy="1"/>
<feGaussianBlur stdDeviation="2"/>
<feColorMatrix type="matrix" values="0 0 0 0 0 0 0 0 0 0 0 0 0 0 0 0 0 0 0.25 0"/>
<feBlend mode="normal" in2="BackgroundImageFix" result="effect1_dropShadow_0_1"/>
<feBlend mode="normal" in="SourceGraphic" in2="effect1_dropShadow_0_1" result="shape"/>
</filter>
</defs>
</svg>
